solid OpenSCAD_Model
  facet normal 0 -0.948683 -0.316228
    outer loop
      vertex 2 64 1
      vertex 42 63 4
      vertex 2 63 4
    endloop
  endfacet
  facet normal 0 -0.948683 -0.316228
    outer loop
      vertex 42 63 4
      vertex 2 64 1
      vertex 42 64 1
    endloop
  endfacet
  facet normal -1 0 0
    outer loop
      vertex -2 61 4
      vertex -2 65 11
      vertex -2 65 1
    endloop
  endfacet
  facet normal -1 0 0
    outer loop
      vertex -2 61 9
      vertex -2 65 11
      vertex -2 61 4
    endloop
  endfacet
  facet normal -1 0 0
    outer loop
      vertex -2 44 1
      vertex -2 61 4
      vertex -2 65 1
    endloop
  endfacet
  facet normal -1 0 0
    outer loop
      vertex -2 44 11
      vertex -2 47 9
      vertex -2 47 4
    endloop
  endfacet
  facet normal -1 -0 0
    outer loop
      vertex -2 61 4
      vertex -2 44 1
      vertex -2 47 4
    endloop
  endfacet
  facet normal -1 0 0
    outer loop
      vertex -2 44 11
      vertex -2 47 4
      vertex -2 44 1
    endloop
  endfacet
  facet normal -1 0 0
    outer loop
      vertex -2 47 9
      vertex -2 44 11
      vertex -2 45 11
    endloop
  endfacet
  facet normal -1 -0 0
    outer loop
      vertex -2 65 11
      vertex -2 61 9
      vertex -2 64 11
    endloop
  endfacet
  facet normal 0 1 -0
    outer loop
      vertex 46 65 1
      vertex -2 65 11
      vertex 46 65 11
    endloop
  endfacet
  facet normal 0 1 0
    outer loop
      vertex -2 65 11
      vertex 46 65 1
      vertex -2 65 1
    endloop
  endfacet
  facet normal 0 0 -1
    outer loop
      vertex 2 44 1
      vertex -2 44 1
      vertex 2 64 1
    endloop
  endfacet
  facet normal 0 0 -1
    outer loop
      vertex 42 64 1
      vertex 46 44 1
      vertex 42 44 1
    endloop
  endfacet
  facet normal 0 0 -1
    outer loop
      vertex 46 44 1
      vertex 42 64 1
      vertex 46 65 1
    endloop
  endfacet
  facet normal 0 0 -1
    outer loop
      vertex 2 64 1
      vertex 46 65 1
      vertex 42 64 1
    endloop
  endfacet
  facet normal 0 0 -1
    outer loop
      vertex 2 64 1
      vertex -2 65 1
      vertex 46 65 1
    endloop
  endfacet
  facet normal 0 0 -1
    outer loop
      vertex -2 65 1
      vertex 2 64 1
      vertex -2 44 1
    endloop
  endfacet
  facet normal 0 -1 0
    outer loop
      vertex 2 63 4
      vertex 42 63 8
      vertex 2 63 8
    endloop
  endfacet
  facet normal 0 -1 -0
    outer loop
      vertex 42 63 8
      vertex 2 63 4
      vertex 42 63 4
    endloop
  endfacet
  facet normal 0 -0.948683 0.316228
    outer loop
      vertex 2 63 8
      vertex 42 64 11
      vertex 2 64 11
    endloop
  endfacet
  facet normal 0 -0.948683 0.316228
    outer loop
      vertex 42 64 11
      vertex 2 63 8
      vertex 42 63 8
    endloop
  endfacet
  facet normal 1 -0 0
    outer loop
      vertex 46 44 11
      vertex 46 47 9
      vertex 46 45 11
    endloop
  endfacet
  facet normal 1 0 0
    outer loop
      vertex 46 61 9
      vertex 46 65 11
      vertex 46 64 11
    endloop
  endfacet
  facet normal 1 0 0
    outer loop
      vertex 46 65 11
      vertex 46 61 9
      vertex 46 61 4
    endloop
  endfacet
  facet normal 1 0 0
    outer loop
      vertex 46 65 11
      vertex 46 61 4
      vertex 46 65 1
    endloop
  endfacet
  facet normal 1 0 0
    outer loop
      vertex 46 44 1
      vertex 46 61 4
      vertex 46 47 4
    endloop
  endfacet
  facet normal 1 0 0
    outer loop
      vertex 46 47 9
      vertex 46 44 11
      vertex 46 47 4
    endloop
  endfacet
  facet normal 1 0 0
    outer loop
      vertex 46 61 4
      vertex 46 44 1
      vertex 46 65 1
    endloop
  endfacet
  facet normal 1 0 0
    outer loop
      vertex 46 44 1
      vertex 46 47 4
      vertex 46 44 11
    endloop
  endfacet
  facet normal 0 0 1
    outer loop
      vertex 46 65 11
      vertex 42 64 11
      vertex 46 64 11
    endloop
  endfacet
  facet normal 0 0 1
    outer loop
      vertex 46 65 11
      vertex 2 64 11
      vertex 42 64 11
    endloop
  endfacet
  facet normal -0 0 1
    outer loop
      vertex -2 65 11
      vertex 2 64 11
      vertex 46 65 11
    endloop
  endfacet
  facet normal 0 0 1
    outer loop
      vertex 2 64 11
      vertex -2 65 11
      vertex -2 64 11
    endloop
  endfacet
  facet normal 0 -1 0
    outer loop
      vertex -2 61 9
      vertex 0 61 6.75
      vertex 2 61 9
    endloop
  endfacet
  facet normal 0 -1 0
    outer loop
      vertex -2 61 4
      vertex 0 61 6.75
      vertex -2 61 9
    endloop
  endfacet
  facet normal 0 -1 -0
    outer loop
      vertex 0 61 6.75
      vertex -2 61 4
      vertex 0 61 5.25
    endloop
  endfacet
  facet normal 0 -1 0
    outer loop
      vertex 2 61 4
      vertex 0 61 5.25
      vertex -2 61 4
    endloop
  endfacet
  facet normal 0 -1 0
    outer loop
      vertex 0 61 5.25
      vertex 2 61 4
      vertex 2 61 5.25
    endloop
  endfacet
  facet normal 0 -1 -0
    outer loop
      vertex 2 61 9
      vertex 0 61 6.75
      vertex 2 61 6.75
    endloop
  endfacet
  facet normal 1 0 0
    outer loop
      vertex 2 44 6.75
      vertex 2 47 9
      vertex 2 45 11
    endloop
  endfacet
  facet normal 1 0 0
    outer loop
      vertex 2 44 6.75
      vertex 2 45 11
      vertex 2 44 11
    endloop
  endfacet
  facet normal 1 0 0
    outer loop
      vertex 2 47 9
      vertex 2 44 6.75
      vertex 2 47 6.75
    endloop
  endfacet
  facet normal 1 0 0
    outer loop
      vertex 2 47 5.25
      vertex 2 44 5.25
      vertex 2 47 4
    endloop
  endfacet
  facet normal 1 0 0
    outer loop
      vertex 2 63 8
      vertex 2 62.9 6.75
      vertex 2 63 4
    endloop
  endfacet
  facet normal 1 -0 0
    outer loop
      vertex 2 61 9
      vertex 2 63 8
      vertex 2 64 11
    endloop
  endfacet
  facet normal 1 0 0
    outer loop
      vertex 2 61 6.75
      vertex 2 63 8
      vertex 2 61 9
    endloop
  endfacet
  facet normal 1 0 0
    outer loop
      vertex 2 63 8
      vertex 2 61 6.75
      vertex 2 62.9 6.75
    endloop
  endfacet
  facet normal 1 -0 0
    outer loop
      vertex 2 62.9 5.25
      vertex 2 63 4
      vertex 2 62.9 6.75
    endloop
  endfacet
  facet normal 1 0 0
    outer loop
      vertex 2 61 4
      vertex 2 62.9 5.25
      vertex 2 61 5.25
    endloop
  endfacet
  facet normal 1 0 0
    outer loop
      vertex 2 62.9 5.25
      vertex 2 61 4
      vertex 2 63 4
    endloop
  endfacet
  facet normal 1 0 0
    outer loop
      vertex 2 63 4
      vertex 2 61 4
      vertex 2 64 1
    endloop
  endfacet
  facet normal 1 -0 0
    outer loop
      vertex 2 47 4
      vertex 2 64 1
      vertex 2 61 4
    endloop
  endfacet
  facet normal 1 0 0
    outer loop
      vertex 2 47 4
      vertex 2 44 1
      vertex 2 64 1
    endloop
  endfacet
  facet normal 1 0 0
    outer loop
      vertex 2 44 1
      vertex 2 47 4
      vertex 2 44 5.25
    endloop
  endfacet
  facet normal 0 -0.5547 0.83205
    outer loop
      vertex -2 64 11
      vertex 2 61 9
      vertex 2 64 11
    endloop
  endfacet
  facet normal 0 -0.5547 0.83205
    outer loop
      vertex 2 61 9
      vertex -2 64 11
      vertex -2 61 9
    endloop
  endfacet
  facet normal -1 0 0
    outer loop
      vertex 42 44 6.75
      vertex 42 47 9
      vertex 42 47 6.75
    endloop
  endfacet
  facet normal -1 -0 0
    outer loop
      vertex 42 47 9
      vertex 42 44 6.75
      vertex 42 45 11
    endloop
  endfacet
  facet normal -1 -0 0
    outer loop
      vertex 42 45 11
      vertex 42 44 6.75
      vertex 42 44 11
    endloop
  endfacet
  facet normal -1 0 0
    outer loop
      vertex 42 63 4
      vertex 42 62.9 5.25
      vertex 42 63 8
    endloop
  endfacet
  facet normal -1 0 0
    outer loop
      vertex 42 63 4
      vertex 42 61 4
      vertex 42 62.9 5.25
    endloop
  endfacet
  facet normal -1 0 0
    outer loop
      vertex 42 64 1
      vertex 42 61 4
      vertex 42 63 4
    endloop
  endfacet
  facet normal -1 0 0
    outer loop
      vertex 42 64 1
      vertex 42 47 4
      vertex 42 61 4
    endloop
  endfacet
  facet normal -1 0 0
    outer loop
      vertex 42 44 1
      vertex 42 47 4
      vertex 42 64 1
    endloop
  endfacet
  facet normal -1 0 0
    outer loop
      vertex 42 44 5.25
      vertex 42 47 4
      vertex 42 44 1
    endloop
  endfacet
  facet normal -1 0 0
    outer loop
      vertex 42 47 4
      vertex 42 44 5.25
      vertex 42 47 5.25
    endloop
  endfacet
  facet normal -1 0 0
    outer loop
      vertex 42 62.9 6.75
      vertex 42 63 8
      vertex 42 62.9 5.25
    endloop
  endfacet
  facet normal -1 0 0
    outer loop
      vertex 42 61 6.75
      vertex 42 63 8
      vertex 42 62.9 6.75
    endloop
  endfacet
  facet normal -1 0 0
    outer loop
      vertex 42 61 9
      vertex 42 63 8
      vertex 42 61 6.75
    endloop
  endfacet
  facet normal -1 0 0
    outer loop
      vertex 42 63 8
      vertex 42 61 9
      vertex 42 64 11
    endloop
  endfacet
  facet normal -1 -0 0
    outer loop
      vertex 42 62.9 5.25
      vertex 42 61 4
      vertex 42 61 5.25
    endloop
  endfacet
  facet normal 0 -1 0
    outer loop
      vertex 42 61 5.25
      vertex 42 61 4
      vertex 44 61 5.25
    endloop
  endfacet
  facet normal 0 -1 0
    outer loop
      vertex 44 61 6.75
      vertex 42 61 9
      vertex 42 61 6.75
    endloop
  endfacet
  facet normal 0 -1 0
    outer loop
      vertex 42 61 9
      vertex 44 61 6.75
      vertex 46 61 9
    endloop
  endfacet
  facet normal 0 -1 0
    outer loop
      vertex 46 61 4
      vertex 44 61 6.75
      vertex 44 61 5.25
    endloop
  endfacet
  facet normal 0 -1 0
    outer loop
      vertex 44 61 6.75
      vertex 46 61 4
      vertex 46 61 9
    endloop
  endfacet
  facet normal 0 -1 0
    outer loop
      vertex 46 61 4
      vertex 44 61 5.25
      vertex 42 61 4
    endloop
  endfacet
  facet normal 0 -0.5547 0.83205
    outer loop
      vertex 42 64 11
      vertex 46 61 9
      vertex 46 64 11
    endloop
  endfacet
  facet normal 0 -0.5547 0.83205
    outer loop
      vertex 46 61 9
      vertex 42 64 11
      vertex 42 61 9
    endloop
  endfacet
  facet normal -0 0 1
    outer loop
      vertex 42 61 4
      vertex 46 47 4
      vertex 46 61 4
    endloop
  endfacet
  facet normal 0 0 1
    outer loop
      vertex 46 47 4
      vertex 42 61 4
      vertex 42 47 4
    endloop
  endfacet
  facet normal 0 -1 0
    outer loop
      vertex 42 44 5.25
      vertex 42 44 1
      vertex 44 44 5.25
    endloop
  endfacet
  facet normal 0 -1 0
    outer loop
      vertex 44 44 6.75
      vertex 42 44 11
      vertex 42 44 6.75
    endloop
  endfacet
  facet normal 0 -1 0
    outer loop
      vertex 42 44 11
      vertex 44 44 6.75
      vertex 46 44 11
    endloop
  endfacet
  facet normal 0 -1 0
    outer loop
      vertex 44 44 5.25
      vertex 46 44 11
      vertex 44 44 6.75
    endloop
  endfacet
  facet normal 0 -1 0
    outer loop
      vertex 44 44 5.25
      vertex 46 44 1
      vertex 46 44 11
    endloop
  endfacet
  facet normal 0 -1 0
    outer loop
      vertex 46 44 1
      vertex 44 44 5.25
      vertex 42 44 1
    endloop
  endfacet
  facet normal 0 0.707107 0.707107
    outer loop
      vertex 46 47 9
      vertex 42 45 11
      vertex 46 45 11
    endloop
  endfacet
  facet normal 0 0.707107 0.707107
    outer loop
      vertex 42 45 11
      vertex 46 47 9
      vertex 42 47 9
    endloop
  endfacet
  facet normal 0 1 0
    outer loop
      vertex 46 47 9
      vertex 44 47 6.75
      vertex 42 47 9
    endloop
  endfacet
  facet normal 0 1 -0
    outer loop
      vertex 46 47 4
      vertex 44 47 6.75
      vertex 46 47 9
    endloop
  endfacet
  facet normal 0 1 0
    outer loop
      vertex 44 47 6.75
      vertex 46 47 4
      vertex 44 47 5.25
    endloop
  endfacet
  facet normal 0 1 0
    outer loop
      vertex 42 47 4
      vertex 44 47 5.25
      vertex 46 47 4
    endloop
  endfacet
  facet normal 0 1 0
    outer loop
      vertex 44 47 5.25
      vertex 42 47 4
      vertex 42 47 5.25
    endloop
  endfacet
  facet normal 0 1 0
    outer loop
      vertex 42 47 9
      vertex 44 47 6.75
      vertex 42 47 6.75
    endloop
  endfacet
  facet normal -0 0 1
    outer loop
      vertex 42 45 11
      vertex 46 44 11
      vertex 46 45 11
    endloop
  endfacet
  facet normal 0 0 1
    outer loop
      vertex 46 44 11
      vertex 42 45 11
      vertex 42 44 11
    endloop
  endfacet
  facet normal -0 0 1
    outer loop
      vertex -2 61 4
      vertex 2 47 4
      vertex 2 61 4
    endloop
  endfacet
  facet normal 0 0 1
    outer loop
      vertex 2 47 4
      vertex -2 61 4
      vertex -2 47 4
    endloop
  endfacet
  facet normal 0 -1 0
    outer loop
      vertex -2 44 11
      vertex 0 44 6.75
      vertex 2 44 11
    endloop
  endfacet
  facet normal 0 -1 0
    outer loop
      vertex -2 44 11
      vertex 0 44 5.25
      vertex 0 44 6.75
    endloop
  endfacet
  facet normal 0 -1 0
    outer loop
      vertex -2 44 1
      vertex 0 44 5.25
      vertex -2 44 11
    endloop
  endfacet
  facet normal 0 -1 0
    outer loop
      vertex 2 44 1
      vertex 0 44 5.25
      vertex -2 44 1
    endloop
  endfacet
  facet normal 0 -1 0
    outer loop
      vertex 0 44 5.25
      vertex 2 44 1
      vertex 2 44 5.25
    endloop
  endfacet
  facet normal 0 -1 -0
    outer loop
      vertex 2 44 11
      vertex 0 44 6.75
      vertex 2 44 6.75
    endloop
  endfacet
  facet normal 0 0.707107 0.707107
    outer loop
      vertex 2 47 9
      vertex -2 45 11
      vertex 2 45 11
    endloop
  endfacet
  facet normal 0 0.707107 0.707107
    outer loop
      vertex -2 45 11
      vertex 2 47 9
      vertex -2 47 9
    endloop
  endfacet
  facet normal 0 1 0
    outer loop
      vertex 2 47 5.25
      vertex 2 47 4
      vertex 0 47 5.25
    endloop
  endfacet
  facet normal 0 1 0
    outer loop
      vertex 0 47 6.75
      vertex 2 47 9
      vertex 2 47 6.75
    endloop
  endfacet
  facet normal 0 1 0
    outer loop
      vertex 2 47 9
      vertex 0 47 6.75
      vertex -2 47 9
    endloop
  endfacet
  facet normal 0 1 0
    outer loop
      vertex -2 47 4
      vertex 0 47 6.75
      vertex 0 47 5.25
    endloop
  endfacet
  facet normal 0 1 0
    outer loop
      vertex 0 47 6.75
      vertex -2 47 4
      vertex -2 47 9
    endloop
  endfacet
  facet normal 0 1 0
    outer loop
      vertex -2 47 4
      vertex 0 47 5.25
      vertex 2 47 4
    endloop
  endfacet
  facet normal -0 0 1
    outer loop
      vertex -2 45 11
      vertex 2 44 11
      vertex 2 45 11
    endloop
  endfacet
  facet normal 0 0 1
    outer loop
      vertex 2 44 11
      vertex -2 45 11
      vertex -2 44 11
    endloop
  endfacet
  facet normal 1 -0 0
    outer loop
      vertex 0 61 6.75
      vertex 0 62.9 5.25
      vertex 0 62.9 6.75
    endloop
  endfacet
  facet normal 1 0 0
    outer loop
      vertex 0 62.9 5.25
      vertex 0 61 6.75
      vertex 0 61 5.25
    endloop
  endfacet
  facet normal 1 -0 0
    outer loop
      vertex 0 44 6.75
      vertex 0 47 5.25
      vertex 0 47 6.75
    endloop
  endfacet
  facet normal 1 0 0
    outer loop
      vertex 0 47 5.25
      vertex 0 44 6.75
      vertex 0 44 5.25
    endloop
  endfacet
  facet normal -1 0 0
    outer loop
      vertex 44 61 5.25
      vertex 44 62.9 6.75
      vertex 44 62.9 5.25
    endloop
  endfacet
  facet normal -1 -0 0
    outer loop
      vertex 44 62.9 6.75
      vertex 44 61 5.25
      vertex 44 61 6.75
    endloop
  endfacet
  facet normal -1 0 0
    outer loop
      vertex 44 44 5.25
      vertex 44 47 6.75
      vertex 44 47 5.25
    endloop
  endfacet
  facet normal -1 -0 0
    outer loop
      vertex 44 47 6.75
      vertex 44 44 5.25
      vertex 44 44 6.75
    endloop
  endfacet
  facet normal 0 0 -1
    outer loop
      vertex 0 61 6.75
      vertex 2 62.9 6.75
      vertex 2 61 6.75
    endloop
  endfacet
  facet normal -0 0 -1
    outer loop
      vertex 2 62.9 6.75
      vertex 0 61 6.75
      vertex 0 62.9 6.75
    endloop
  endfacet
  facet normal 0 0 -1
    outer loop
      vertex 42 61 6.75
      vertex 44 62.9 6.75
      vertex 44 61 6.75
    endloop
  endfacet
  facet normal -0 0 -1
    outer loop
      vertex 44 62.9 6.75
      vertex 42 61 6.75
      vertex 42 62.9 6.75
    endloop
  endfacet
  facet normal 0 0 -1
    outer loop
      vertex 0 44 6.75
      vertex 2 47 6.75
      vertex 2 44 6.75
    endloop
  endfacet
  facet normal -0 0 -1
    outer loop
      vertex 2 47 6.75
      vertex 0 44 6.75
      vertex 0 47 6.75
    endloop
  endfacet
  facet normal 0 0 -1
    outer loop
      vertex 42 44 6.75
      vertex 44 47 6.75
      vertex 44 44 6.75
    endloop
  endfacet
  facet normal -0 0 -1
    outer loop
      vertex 44 47 6.75
      vertex 42 44 6.75
      vertex 42 47 6.75
    endloop
  endfacet
  facet normal 0 -1 0
    outer loop
      vertex 0 62.9 5.25
      vertex 2 62.9 6.75
      vertex 0 62.9 6.75
    endloop
  endfacet
  facet normal 0 -1 -0
    outer loop
      vertex 2 62.9 6.75
      vertex 0 62.9 5.25
      vertex 2 62.9 5.25
    endloop
  endfacet
  facet normal 0 -1 0
    outer loop
      vertex 42 62.9 5.25
      vertex 44 62.9 6.75
      vertex 42 62.9 6.75
    endloop
  endfacet
  facet normal 0 -1 -0
    outer loop
      vertex 44 62.9 6.75
      vertex 42 62.9 5.25
      vertex 44 62.9 5.25
    endloop
  endfacet
  facet normal -0 0 1
    outer loop
      vertex 0 62.9 5.25
      vertex 2 61 5.25
      vertex 2 62.9 5.25
    endloop
  endfacet
  facet normal 0 0 1
    outer loop
      vertex 2 61 5.25
      vertex 0 62.9 5.25
      vertex 0 61 5.25
    endloop
  endfacet
  facet normal -0 0 1
    outer loop
      vertex 42 62.9 5.25
      vertex 44 61 5.25
      vertex 44 62.9 5.25
    endloop
  endfacet
  facet normal 0 0 1
    outer loop
      vertex 44 61 5.25
      vertex 42 62.9 5.25
      vertex 42 61 5.25
    endloop
  endfacet
  facet normal -0 0 1
    outer loop
      vertex 0 47 5.25
      vertex 2 44 5.25
      vertex 2 47 5.25
    endloop
  endfacet
  facet normal 0 0 1
    outer loop
      vertex 2 44 5.25
      vertex 0 47 5.25
      vertex 0 44 5.25
    endloop
  endfacet
  facet normal -0 0 1
    outer loop
      vertex 42 47 5.25
      vertex 44 44 5.25
      vertex 44 47 5.25
    endloop
  endfacet
  facet normal 0 0 1
    outer loop
      vertex 44 44 5.25
      vertex 42 47 5.25
      vertex 42 44 5.25
    endloop
  endfacet
endsolid OpenSCAD_Model
