solid OpenSCAD_Model
  facet normal 0 -0.948683 -0.316228
    outer loop
      vertex 64 64 1
      vertex 76 63 4
      vertex 64 63 4
    endloop
  endfacet
  facet normal 0 -0.948683 -0.316228
    outer loop
      vertex 76 63 4
      vertex 64 64 1
      vertex 76 64 1
    endloop
  endfacet
  facet normal -1 0 0
    outer loop
      vertex 60 61 4
      vertex 60 65 11
      vertex 60 65 1
    endloop
  endfacet
  facet normal -1 0 0
    outer loop
      vertex 60 61 9
      vertex 60 65 11
      vertex 60 61 4
    endloop
  endfacet
  facet normal -1 0 0
    outer loop
      vertex 60 49 1
      vertex 60 61 4
      vertex 60 65 1
    endloop
  endfacet
  facet normal -1 0 0
    outer loop
      vertex 60 49 11
      vertex 60 52 9
      vertex 60 52 4
    endloop
  endfacet
  facet normal -1 -0 0
    outer loop
      vertex 60 61 4
      vertex 60 49 1
      vertex 60 52 4
    endloop
  endfacet
  facet normal -1 0 0
    outer loop
      vertex 60 49 11
      vertex 60 52 4
      vertex 60 49 1
    endloop
  endfacet
  facet normal -1 0 0
    outer loop
      vertex 60 52 9
      vertex 60 49 11
      vertex 60 50 11
    endloop
  endfacet
  facet normal -1 -0 0
    outer loop
      vertex 60 65 11
      vertex 60 61 9
      vertex 60 64 11
    endloop
  endfacet
  facet normal 0 1 -0
    outer loop
      vertex 80 65 1
      vertex 60 65 11
      vertex 80 65 11
    endloop
  endfacet
  facet normal 0 1 0
    outer loop
      vertex 60 65 11
      vertex 80 65 1
      vertex 60 65 1
    endloop
  endfacet
  facet normal 0 0 -1
    outer loop
      vertex 64 49 1
      vertex 60 49 1
      vertex 64 64 1
    endloop
  endfacet
  facet normal 0 0 -1
    outer loop
      vertex 76 64 1
      vertex 80 49 1
      vertex 76 49 1
    endloop
  endfacet
  facet normal 0 0 -1
    outer loop
      vertex 80 49 1
      vertex 76 64 1
      vertex 80 65 1
    endloop
  endfacet
  facet normal 0 0 -1
    outer loop
      vertex 64 64 1
      vertex 80 65 1
      vertex 76 64 1
    endloop
  endfacet
  facet normal 0 0 -1
    outer loop
      vertex 64 64 1
      vertex 60 65 1
      vertex 80 65 1
    endloop
  endfacet
  facet normal 0 0 -1
    outer loop
      vertex 60 65 1
      vertex 64 64 1
      vertex 60 49 1
    endloop
  endfacet
  facet normal 0 -1 0
    outer loop
      vertex 64 63 4
      vertex 76 63 8
      vertex 64 63 8
    endloop
  endfacet
  facet normal 0 -1 -0
    outer loop
      vertex 76 63 8
      vertex 64 63 4
      vertex 76 63 4
    endloop
  endfacet
  facet normal 0 -0.948683 0.316228
    outer loop
      vertex 64 63 8
      vertex 76 64 11
      vertex 64 64 11
    endloop
  endfacet
  facet normal 0 -0.948683 0.316228
    outer loop
      vertex 76 64 11
      vertex 64 63 8
      vertex 76 63 8
    endloop
  endfacet
  facet normal 1 -0 0
    outer loop
      vertex 80 49 11
      vertex 80 52 9
      vertex 80 50 11
    endloop
  endfacet
  facet normal 1 0 0
    outer loop
      vertex 80 61 9
      vertex 80 65 11
      vertex 80 64 11
    endloop
  endfacet
  facet normal 1 0 0
    outer loop
      vertex 80 65 11
      vertex 80 61 9
      vertex 80 61 4
    endloop
  endfacet
  facet normal 1 0 0
    outer loop
      vertex 80 65 11
      vertex 80 61 4
      vertex 80 65 1
    endloop
  endfacet
  facet normal 1 0 0
    outer loop
      vertex 80 49 1
      vertex 80 61 4
      vertex 80 52 4
    endloop
  endfacet
  facet normal 1 0 0
    outer loop
      vertex 80 52 9
      vertex 80 49 11
      vertex 80 52 4
    endloop
  endfacet
  facet normal 1 0 0
    outer loop
      vertex 80 61 4
      vertex 80 49 1
      vertex 80 65 1
    endloop
  endfacet
  facet normal 1 0 0
    outer loop
      vertex 80 49 1
      vertex 80 52 4
      vertex 80 49 11
    endloop
  endfacet
  facet normal 0 0 1
    outer loop
      vertex 80 65 11
      vertex 76 64 11
      vertex 80 64 11
    endloop
  endfacet
  facet normal 0 0 1
    outer loop
      vertex 80 65 11
      vertex 64 64 11
      vertex 76 64 11
    endloop
  endfacet
  facet normal -0 0 1
    outer loop
      vertex 60 65 11
      vertex 64 64 11
      vertex 80 65 11
    endloop
  endfacet
  facet normal 0 0 1
    outer loop
      vertex 64 64 11
      vertex 60 65 11
      vertex 60 64 11
    endloop
  endfacet
  facet normal 0 -1 0
    outer loop
      vertex 60 61 9
      vertex 62 61 6.75
      vertex 64 61 9
    endloop
  endfacet
  facet normal 0 -1 0
    outer loop
      vertex 60 61 4
      vertex 62 61 6.75
      vertex 60 61 9
    endloop
  endfacet
  facet normal 0 -1 -0
    outer loop
      vertex 62 61 6.75
      vertex 60 61 4
      vertex 62 61 5.25
    endloop
  endfacet
  facet normal 0 -1 0
    outer loop
      vertex 64 61 4
      vertex 62 61 5.25
      vertex 60 61 4
    endloop
  endfacet
  facet normal 0 -1 0
    outer loop
      vertex 62 61 5.25
      vertex 64 61 4
      vertex 64 61 5.25
    endloop
  endfacet
  facet normal 0 -1 -0
    outer loop
      vertex 64 61 9
      vertex 62 61 6.75
      vertex 64 61 6.75
    endloop
  endfacet
  facet normal 1 0 0
    outer loop
      vertex 64 49 6.75
      vertex 64 52 9
      vertex 64 50 11
    endloop
  endfacet
  facet normal 1 0 0
    outer loop
      vertex 64 49 6.75
      vertex 64 50 11
      vertex 64 49 11
    endloop
  endfacet
  facet normal 1 0 0
    outer loop
      vertex 64 52 9
      vertex 64 49 6.75
      vertex 64 52 6.75
    endloop
  endfacet
  facet normal 1 0 0
    outer loop
      vertex 64 52 5.25
      vertex 64 49 5.25
      vertex 64 52 4
    endloop
  endfacet
  facet normal 1 0 0
    outer loop
      vertex 64 63 8
      vertex 64 62.9 6.75
      vertex 64 63 4
    endloop
  endfacet
  facet normal 1 -0 0
    outer loop
      vertex 64 61 9
      vertex 64 63 8
      vertex 64 64 11
    endloop
  endfacet
  facet normal 1 0 0
    outer loop
      vertex 64 61 6.75
      vertex 64 63 8
      vertex 64 61 9
    endloop
  endfacet
  facet normal 1 0 0
    outer loop
      vertex 64 63 8
      vertex 64 61 6.75
      vertex 64 62.9 6.75
    endloop
  endfacet
  facet normal 1 -0 0
    outer loop
      vertex 64 62.9 5.25
      vertex 64 63 4
      vertex 64 62.9 6.75
    endloop
  endfacet
  facet normal 1 0 0
    outer loop
      vertex 64 61 4
      vertex 64 62.9 5.25
      vertex 64 61 5.25
    endloop
  endfacet
  facet normal 1 0 0
    outer loop
      vertex 64 62.9 5.25
      vertex 64 61 4
      vertex 64 63 4
    endloop
  endfacet
  facet normal 1 0 0
    outer loop
      vertex 64 63 4
      vertex 64 61 4
      vertex 64 64 1
    endloop
  endfacet
  facet normal 1 -0 0
    outer loop
      vertex 64 52 4
      vertex 64 64 1
      vertex 64 61 4
    endloop
  endfacet
  facet normal 1 0 0
    outer loop
      vertex 64 52 4
      vertex 64 49 1
      vertex 64 64 1
    endloop
  endfacet
  facet normal 1 0 0
    outer loop
      vertex 64 49 1
      vertex 64 52 4
      vertex 64 49 5.25
    endloop
  endfacet
  facet normal 0 -0.5547 0.83205
    outer loop
      vertex 60 64 11
      vertex 64 61 9
      vertex 64 64 11
    endloop
  endfacet
  facet normal 0 -0.5547 0.83205
    outer loop
      vertex 64 61 9
      vertex 60 64 11
      vertex 60 61 9
    endloop
  endfacet
  facet normal -1 0 0
    outer loop
      vertex 76 49 6.75
      vertex 76 52 9
      vertex 76 52 6.75
    endloop
  endfacet
  facet normal -1 -0 0
    outer loop
      vertex 76 52 9
      vertex 76 49 6.75
      vertex 76 50 11
    endloop
  endfacet
  facet normal -1 -0 0
    outer loop
      vertex 76 50 11
      vertex 76 49 6.75
      vertex 76 49 11
    endloop
  endfacet
  facet normal -1 0 0
    outer loop
      vertex 76 63 4
      vertex 76 62.9 5.25
      vertex 76 63 8
    endloop
  endfacet
  facet normal -1 0 0
    outer loop
      vertex 76 63 4
      vertex 76 61 4
      vertex 76 62.9 5.25
    endloop
  endfacet
  facet normal -1 0 0
    outer loop
      vertex 76 64 1
      vertex 76 61 4
      vertex 76 63 4
    endloop
  endfacet
  facet normal -1 0 0
    outer loop
      vertex 76 64 1
      vertex 76 52 4
      vertex 76 61 4
    endloop
  endfacet
  facet normal -1 0 0
    outer loop
      vertex 76 49 1
      vertex 76 52 4
      vertex 76 64 1
    endloop
  endfacet
  facet normal -1 0 0
    outer loop
      vertex 76 49 5.25
      vertex 76 52 4
      vertex 76 49 1
    endloop
  endfacet
  facet normal -1 0 0
    outer loop
      vertex 76 52 4
      vertex 76 49 5.25
      vertex 76 52 5.25
    endloop
  endfacet
  facet normal -1 0 0
    outer loop
      vertex 76 62.9 6.75
      vertex 76 63 8
      vertex 76 62.9 5.25
    endloop
  endfacet
  facet normal -1 0 0
    outer loop
      vertex 76 61 6.75
      vertex 76 63 8
      vertex 76 62.9 6.75
    endloop
  endfacet
  facet normal -1 0 0
    outer loop
      vertex 76 61 9
      vertex 76 63 8
      vertex 76 61 6.75
    endloop
  endfacet
  facet normal -1 0 0
    outer loop
      vertex 76 63 8
      vertex 76 61 9
      vertex 76 64 11
    endloop
  endfacet
  facet normal -1 -0 0
    outer loop
      vertex 76 62.9 5.25
      vertex 76 61 4
      vertex 76 61 5.25
    endloop
  endfacet
  facet normal 0 -1 0
    outer loop
      vertex 76 61 5.25
      vertex 76 61 4
      vertex 78 61 5.25
    endloop
  endfacet
  facet normal 0 -1 0
    outer loop
      vertex 78 61 6.75
      vertex 76 61 9
      vertex 76 61 6.75
    endloop
  endfacet
  facet normal 0 -1 0
    outer loop
      vertex 76 61 9
      vertex 78 61 6.75
      vertex 80 61 9
    endloop
  endfacet
  facet normal 0 -1 0
    outer loop
      vertex 80 61 4
      vertex 78 61 6.75
      vertex 78 61 5.25
    endloop
  endfacet
  facet normal 0 -1 0
    outer loop
      vertex 78 61 6.75
      vertex 80 61 4
      vertex 80 61 9
    endloop
  endfacet
  facet normal 0 -1 0
    outer loop
      vertex 80 61 4
      vertex 78 61 5.25
      vertex 76 61 4
    endloop
  endfacet
  facet normal 0 -0.5547 0.83205
    outer loop
      vertex 76 64 11
      vertex 80 61 9
      vertex 80 64 11
    endloop
  endfacet
  facet normal 0 -0.5547 0.83205
    outer loop
      vertex 80 61 9
      vertex 76 64 11
      vertex 76 61 9
    endloop
  endfacet
  facet normal -0 0 1
    outer loop
      vertex 76 61 4
      vertex 80 52 4
      vertex 80 61 4
    endloop
  endfacet
  facet normal 0 0 1
    outer loop
      vertex 80 52 4
      vertex 76 61 4
      vertex 76 52 4
    endloop
  endfacet
  facet normal 0 -1 0
    outer loop
      vertex 76 49 5.25
      vertex 76 49 1
      vertex 78 49 5.25
    endloop
  endfacet
  facet normal 0 -1 0
    outer loop
      vertex 78 49 6.75
      vertex 76 49 11
      vertex 76 49 6.75
    endloop
  endfacet
  facet normal 0 -1 0
    outer loop
      vertex 76 49 11
      vertex 78 49 6.75
      vertex 80 49 11
    endloop
  endfacet
  facet normal 0 -1 0
    outer loop
      vertex 78 49 5.25
      vertex 80 49 11
      vertex 78 49 6.75
    endloop
  endfacet
  facet normal 0 -1 0
    outer loop
      vertex 78 49 5.25
      vertex 80 49 1
      vertex 80 49 11
    endloop
  endfacet
  facet normal 0 -1 0
    outer loop
      vertex 80 49 1
      vertex 78 49 5.25
      vertex 76 49 1
    endloop
  endfacet
  facet normal 0 0.707107 0.707107
    outer loop
      vertex 80 52 9
      vertex 76 50 11
      vertex 80 50 11
    endloop
  endfacet
  facet normal 0 0.707107 0.707107
    outer loop
      vertex 76 50 11
      vertex 80 52 9
      vertex 76 52 9
    endloop
  endfacet
  facet normal 0 1 0
    outer loop
      vertex 80 52 9
      vertex 78 52 6.75
      vertex 76 52 9
    endloop
  endfacet
  facet normal 0 1 -0
    outer loop
      vertex 80 52 4
      vertex 78 52 6.75
      vertex 80 52 9
    endloop
  endfacet
  facet normal 0 1 0
    outer loop
      vertex 78 52 6.75
      vertex 80 52 4
      vertex 78 52 5.25
    endloop
  endfacet
  facet normal 0 1 0
    outer loop
      vertex 76 52 4
      vertex 78 52 5.25
      vertex 80 52 4
    endloop
  endfacet
  facet normal 0 1 0
    outer loop
      vertex 78 52 5.25
      vertex 76 52 4
      vertex 76 52 5.25
    endloop
  endfacet
  facet normal 0 1 0
    outer loop
      vertex 76 52 9
      vertex 78 52 6.75
      vertex 76 52 6.75
    endloop
  endfacet
  facet normal -0 0 1
    outer loop
      vertex 76 50 11
      vertex 80 49 11
      vertex 80 50 11
    endloop
  endfacet
  facet normal 0 0 1
    outer loop
      vertex 80 49 11
      vertex 76 50 11
      vertex 76 49 11
    endloop
  endfacet
  facet normal -0 0 1
    outer loop
      vertex 60 61 4
      vertex 64 52 4
      vertex 64 61 4
    endloop
  endfacet
  facet normal 0 0 1
    outer loop
      vertex 64 52 4
      vertex 60 61 4
      vertex 60 52 4
    endloop
  endfacet
  facet normal 0 0.707107 0.707107
    outer loop
      vertex 64 52 9
      vertex 60 50 11
      vertex 64 50 11
    endloop
  endfacet
  facet normal 0 0.707107 0.707107
    outer loop
      vertex 60 50 11
      vertex 64 52 9
      vertex 60 52 9
    endloop
  endfacet
  facet normal 0 1 0
    outer loop
      vertex 64 52 5.25
      vertex 64 52 4
      vertex 62 52 5.25
    endloop
  endfacet
  facet normal 0 1 0
    outer loop
      vertex 62 52 6.75
      vertex 64 52 9
      vertex 64 52 6.75
    endloop
  endfacet
  facet normal 0 1 0
    outer loop
      vertex 64 52 9
      vertex 62 52 6.75
      vertex 60 52 9
    endloop
  endfacet
  facet normal 0 1 0
    outer loop
      vertex 60 52 4
      vertex 62 52 6.75
      vertex 62 52 5.25
    endloop
  endfacet
  facet normal 0 1 0
    outer loop
      vertex 62 52 6.75
      vertex 60 52 4
      vertex 60 52 9
    endloop
  endfacet
  facet normal 0 1 0
    outer loop
      vertex 60 52 4
      vertex 62 52 5.25
      vertex 64 52 4
    endloop
  endfacet
  facet normal -0 0 1
    outer loop
      vertex 60 50 11
      vertex 64 49 11
      vertex 64 50 11
    endloop
  endfacet
  facet normal 0 0 1
    outer loop
      vertex 64 49 11
      vertex 60 50 11
      vertex 60 49 11
    endloop
  endfacet
  facet normal 0 -1 0
    outer loop
      vertex 60 49 11
      vertex 62 49 6.75
      vertex 64 49 11
    endloop
  endfacet
  facet normal 0 -1 0
    outer loop
      vertex 60 49 11
      vertex 62 49 5.25
      vertex 62 49 6.75
    endloop
  endfacet
  facet normal 0 -1 0
    outer loop
      vertex 60 49 1
      vertex 62 49 5.25
      vertex 60 49 11
    endloop
  endfacet
  facet normal 0 -1 0
    outer loop
      vertex 64 49 1
      vertex 62 49 5.25
      vertex 60 49 1
    endloop
  endfacet
  facet normal 0 -1 0
    outer loop
      vertex 62 49 5.25
      vertex 64 49 1
      vertex 64 49 5.25
    endloop
  endfacet
  facet normal 0 -1 -0
    outer loop
      vertex 64 49 11
      vertex 62 49 6.75
      vertex 64 49 6.75
    endloop
  endfacet
  facet normal 1 -0 0
    outer loop
      vertex 62 61 6.75
      vertex 62 62.9 5.25
      vertex 62 62.9 6.75
    endloop
  endfacet
  facet normal 1 0 0
    outer loop
      vertex 62 62.9 5.25
      vertex 62 61 6.75
      vertex 62 61 5.25
    endloop
  endfacet
  facet normal 1 -0 0
    outer loop
      vertex 62 49 6.75
      vertex 62 52 5.25
      vertex 62 52 6.75
    endloop
  endfacet
  facet normal 1 0 0
    outer loop
      vertex 62 52 5.25
      vertex 62 49 6.75
      vertex 62 49 5.25
    endloop
  endfacet
  facet normal -1 0 0
    outer loop
      vertex 78 61 5.25
      vertex 78 62.9 6.75
      vertex 78 62.9 5.25
    endloop
  endfacet
  facet normal -1 -0 0
    outer loop
      vertex 78 62.9 6.75
      vertex 78 61 5.25
      vertex 78 61 6.75
    endloop
  endfacet
  facet normal -1 0 0
    outer loop
      vertex 78 49 5.25
      vertex 78 52 6.75
      vertex 78 52 5.25
    endloop
  endfacet
  facet normal -1 -0 0
    outer loop
      vertex 78 52 6.75
      vertex 78 49 5.25
      vertex 78 49 6.75
    endloop
  endfacet
  facet normal 0 -1 0
    outer loop
      vertex 62 62.9 5.25
      vertex 64 62.9 6.75
      vertex 62 62.9 6.75
    endloop
  endfacet
  facet normal 0 -1 -0
    outer loop
      vertex 64 62.9 6.75
      vertex 62 62.9 5.25
      vertex 64 62.9 5.25
    endloop
  endfacet
  facet normal 0 -1 0
    outer loop
      vertex 76 62.9 5.25
      vertex 78 62.9 6.75
      vertex 76 62.9 6.75
    endloop
  endfacet
  facet normal 0 -1 -0
    outer loop
      vertex 78 62.9 6.75
      vertex 76 62.9 5.25
      vertex 78 62.9 5.25
    endloop
  endfacet
  facet normal -0 0 1
    outer loop
      vertex 62 62.9 5.25
      vertex 64 61 5.25
      vertex 64 62.9 5.25
    endloop
  endfacet
  facet normal 0 0 1
    outer loop
      vertex 64 61 5.25
      vertex 62 62.9 5.25
      vertex 62 61 5.25
    endloop
  endfacet
  facet normal -0 0 1
    outer loop
      vertex 76 62.9 5.25
      vertex 78 61 5.25
      vertex 78 62.9 5.25
    endloop
  endfacet
  facet normal 0 0 1
    outer loop
      vertex 78 61 5.25
      vertex 76 62.9 5.25
      vertex 76 61 5.25
    endloop
  endfacet
  facet normal -0 0 1
    outer loop
      vertex 62 52 5.25
      vertex 64 49 5.25
      vertex 64 52 5.25
    endloop
  endfacet
  facet normal 0 0 1
    outer loop
      vertex 64 49 5.25
      vertex 62 52 5.25
      vertex 62 49 5.25
    endloop
  endfacet
  facet normal -0 0 1
    outer loop
      vertex 76 52 5.25
      vertex 78 49 5.25
      vertex 78 52 5.25
    endloop
  endfacet
  facet normal 0 0 1
    outer loop
      vertex 78 49 5.25
      vertex 76 52 5.25
      vertex 76 49 5.25
    endloop
  endfacet
  facet normal 0 0 -1
    outer loop
      vertex 62 61 6.75
      vertex 64 62.9 6.75
      vertex 64 61 6.75
    endloop
  endfacet
  facet normal -0 0 -1
    outer loop
      vertex 64 62.9 6.75
      vertex 62 61 6.75
      vertex 62 62.9 6.75
    endloop
  endfacet
  facet normal 0 0 -1
    outer loop
      vertex 76 61 6.75
      vertex 78 62.9 6.75
      vertex 78 61 6.75
    endloop
  endfacet
  facet normal -0 0 -1
    outer loop
      vertex 78 62.9 6.75
      vertex 76 61 6.75
      vertex 76 62.9 6.75
    endloop
  endfacet
  facet normal 0 0 -1
    outer loop
      vertex 62 49 6.75
      vertex 64 52 6.75
      vertex 64 49 6.75
    endloop
  endfacet
  facet normal -0 0 -1
    outer loop
      vertex 64 52 6.75
      vertex 62 49 6.75
      vertex 62 52 6.75
    endloop
  endfacet
  facet normal 0 0 -1
    outer loop
      vertex 76 49 6.75
      vertex 78 52 6.75
      vertex 78 49 6.75
    endloop
  endfacet
  facet normal -0 0 -1
    outer loop
      vertex 78 52 6.75
      vertex 76 49 6.75
      vertex 76 52 6.75
    endloop
  endfacet
endsolid OpenSCAD_Model
