solid OpenSCAD_Model
  facet normal 0.587785 0.809017 -0
    outer loop
      vertex 46.4271 34.7634 1
      vertex 44.9271 35.8532 3
      vertex 46.4271 34.7634 3
    endloop
  endfacet
  facet normal 0.587785 0.809017 0
    outer loop
      vertex 44.9271 35.8532 3
      vertex 46.4271 34.7634 1
      vertex 44.9271 35.8532 1
    endloop
  endfacet
  facet normal 0.951057 0.309017 0
    outer loop
      vertex 47 33 3
      vertex 46.4271 34.7634 1
      vertex 46.4271 34.7634 3
    endloop
  endfacet
  facet normal 0.951057 0.309017 0
    outer loop
      vertex 46.4271 34.7634 1
      vertex 47 33 3
      vertex 47 33 1
    endloop
  endfacet
  facet normal -1 0 0
    outer loop
      vertex -3 0 1
      vertex -3 33 3
      vertex -3 33 1
    endloop
  endfacet
  facet normal -1 -0 0
    outer loop
      vertex -3 33 3
      vertex -3 0 1
      vertex -3 0 3
    endloop
  endfacet
  facet normal 0 1 -0
    outer loop
      vertex 44.9271 35.8532 1
      vertex -0.927051 35.8532 3
      vertex 44.9271 35.8532 3
    endloop
  endfacet
  facet normal 0 1 0
    outer loop
      vertex -0.927051 35.8532 3
      vertex 44.9271 35.8532 1
      vertex -0.927051 35.8532 1
    endloop
  endfacet
  facet normal -0.951056 0.309017 0
    outer loop
      vertex -3 33 1
      vertex -2.42705 34.7634 3
      vertex -2.42705 34.7634 1
    endloop
  endfacet
  facet normal -0.951056 0.309017 0
    outer loop
      vertex -2.42705 34.7634 3
      vertex -3 33 1
      vertex -3 33 3
    endloop
  endfacet
  facet normal 1 -0 0
    outer loop
      vertex 47 0 3
      vertex 47 33 1
      vertex 47 33 3
    endloop
  endfacet
  facet normal 1 0 0
    outer loop
      vertex 47 33 1
      vertex 47 0 3
      vertex 47 0 1
    endloop
  endfacet
  facet normal -0.587785 0.809017 0
    outer loop
      vertex -0.927051 35.8532 1
      vertex -2.42705 34.7634 3
      vertex -0.927051 35.8532 3
    endloop
  endfacet
  facet normal -0.587785 0.809017 0
    outer loop
      vertex -2.42705 34.7634 3
      vertex -0.927051 35.8532 1
      vertex -2.42705 34.7634 1
    endloop
  endfacet
  facet normal 0 0 1
    outer loop
      vertex 0.9 1.55885 3
      vertex 43.1 1.55885 3
      vertex 0.9 31.4412 3
    endloop
  endfacet
  facet normal 0 0 1
    outer loop
      vertex 43.1 1.55885 3
      vertex 0.9 1.55885 3
      vertex 1.8 0 3
    endloop
  endfacet
  facet normal -0 0 1
    outer loop
      vertex -0.9 31.4412 3
      vertex 0.9 1.55885 3
      vertex 0.9 31.4412 3
    endloop
  endfacet
  facet normal 0 0 1
    outer loop
      vertex -0.9 31.4412 3
      vertex -0.9 1.55885 3
      vertex 0.9 1.55885 3
    endloop
  endfacet
  facet normal -0 0 1
    outer loop
      vertex -3 33 3
      vertex -0.9 31.4412 3
      vertex -1.8 33 3
    endloop
  endfacet
  facet normal 0 0 1
    outer loop
      vertex -0.9 31.4412 3
      vertex -3 33 3
      vertex -0.9 1.55885 3
    endloop
  endfacet
  facet normal -0 0 1
    outer loop
      vertex 44.9 1.55885 3
      vertex 47 0 3
      vertex 44.9 31.4412 3
    endloop
  endfacet
  facet normal 0 0 1
    outer loop
      vertex 47 0 3
      vertex 44.9 1.55885 3
      vertex 45.8 0 3
    endloop
  endfacet
  facet normal -0 0 1
    outer loop
      vertex 43.1 31.4412 3
      vertex 44.9 1.55885 3
      vertex 44.9 31.4412 3
    endloop
  endfacet
  facet normal 0 0 1
    outer loop
      vertex 43.1 31.4412 3
      vertex 43.1 1.55885 3
      vertex 44.9 1.55885 3
    endloop
  endfacet
  facet normal -0 0 1
    outer loop
      vertex 1.8 33 3
      vertex 43.1 31.4412 3
      vertex 42.2 33 3
    endloop
  endfacet
  facet normal 0 0 1
    outer loop
      vertex 0.9 31.4412 3
      vertex 43.1 31.4412 3
      vertex 1.8 33 3
    endloop
  endfacet
  facet normal 0 0 1
    outer loop
      vertex 45.8 33 3
      vertex 47 33 3
      vertex 46.4271 34.7634 3
    endloop
  endfacet
  facet normal 0 0 1
    outer loop
      vertex 44.9 31.4412 3
      vertex 47 33 3
      vertex 45.8 33 3
    endloop
  endfacet
  facet normal 0 0 1
    outer loop
      vertex 47 33 3
      vertex 44.9 31.4412 3
      vertex 47 0 3
    endloop
  endfacet
  facet normal 0 0 1
    outer loop
      vertex 44.9 34.5588 3
      vertex 46.4271 34.7634 3
      vertex 44.9271 35.8532 3
    endloop
  endfacet
  facet normal 0 0 1
    outer loop
      vertex 46.4271 34.7634 3
      vertex 44.9 34.5588 3
      vertex 45.8 33 3
    endloop
  endfacet
  facet normal 0 0 1
    outer loop
      vertex 44.9271 35.8532 3
      vertex 43.1 34.5588 3
      vertex 44.9 34.5588 3
    endloop
  endfacet
  facet normal 0 0 1
    outer loop
      vertex 43.1 31.4412 3
      vertex 0.9 31.4412 3
      vertex 43.1 1.55885 3
    endloop
  endfacet
  facet normal 0 0 1
    outer loop
      vertex 43.1 34.5588 3
      vertex 1.8 33 3
      vertex 42.2 33 3
    endloop
  endfacet
  facet normal 0 0 1
    outer loop
      vertex 0.9 34.5588 3
      vertex 43.1 34.5588 3
      vertex 44.9271 35.8532 3
    endloop
  endfacet
  facet normal 0 0 1
    outer loop
      vertex 43.1 34.5588 3
      vertex 0.9 34.5588 3
      vertex 1.8 33 3
    endloop
  endfacet
  facet normal -0 0 1
    outer loop
      vertex -0.927051 35.8532 3
      vertex 0.9 34.5588 3
      vertex 44.9271 35.8532 3
    endloop
  endfacet
  facet normal 0 0 1
    outer loop
      vertex 0.9 34.5588 3
      vertex -0.927051 35.8532 3
      vertex -0.9 34.5588 3
    endloop
  endfacet
  facet normal -0 0 1
    outer loop
      vertex -2.42705 34.7634 3
      vertex -0.9 34.5588 3
      vertex -0.927051 35.8532 3
    endloop
  endfacet
  facet normal 0 0 1
    outer loop
      vertex -3 33 3
      vertex -1.8 33 3
      vertex -2.42705 34.7634 3
    endloop
  endfacet
  facet normal 0 0 1
    outer loop
      vertex -0.9 34.5588 3
      vertex -2.42705 34.7634 3
      vertex -1.8 33 3
    endloop
  endfacet
  facet normal 0 0 1
    outer loop
      vertex 47 0 3
      vertex 45.8 0 3
      vertex 46.4271 -1.76336 3
    endloop
  endfacet
  facet normal -0 0 1
    outer loop
      vertex 44.9 -1.55885 3
      vertex 46.4271 -1.76336 3
      vertex 45.8 0 3
    endloop
  endfacet
  facet normal 0 0 1
    outer loop
      vertex 46.4271 -1.76336 3
      vertex 44.9 -1.55885 3
      vertex 44.9271 -2.85317 3
    endloop
  endfacet
  facet normal -0 0 1
    outer loop
      vertex 43.1 -1.55885 3
      vertex 44.9271 -2.85317 3
      vertex 44.9 -1.55885 3
    endloop
  endfacet
  facet normal 0 0 1
    outer loop
      vertex 43.1 1.55885 3
      vertex 1.8 0 3
      vertex 42.2 0 3
    endloop
  endfacet
  facet normal 0 0 1
    outer loop
      vertex 42.2 0 3
      vertex 1.8 0 3
      vertex 43.1 -1.55885 3
    endloop
  endfacet
  facet normal 0 0 1
    outer loop
      vertex 0.9 -1.55885 3
      vertex 43.1 -1.55885 3
      vertex 1.8 0 3
    endloop
  endfacet
  facet normal 0 0 1
    outer loop
      vertex 43.1 -1.55885 3
      vertex 0.9 -1.55885 3
      vertex 44.9271 -2.85317 3
    endloop
  endfacet
  facet normal 0 0 1
    outer loop
      vertex -0.927051 -2.85317 3
      vertex 0.9 -1.55885 3
      vertex -0.9 -1.55885 3
    endloop
  endfacet
  facet normal 0 0 1
    outer loop
      vertex 0.9 -1.55885 3
      vertex -0.927051 -2.85317 3
      vertex 44.9271 -2.85317 3
    endloop
  endfacet
  facet normal 0 0 1
    outer loop
      vertex -2.42705 -1.76336 3
      vertex -0.9 -1.55885 3
      vertex -1.8 0 3
    endloop
  endfacet
  facet normal 0 0 1
    outer loop
      vertex -0.9 -1.55885 3
      vertex -2.42705 -1.76336 3
      vertex -0.927051 -2.85317 3
    endloop
  endfacet
  facet normal 0 0 1
    outer loop
      vertex -3 0 3
      vertex -0.9 1.55885 3
      vertex -3 33 3
    endloop
  endfacet
  facet normal 0 0 1
    outer loop
      vertex -0.9 1.55885 3
      vertex -3 0 3
      vertex -1.8 0 3
    endloop
  endfacet
  facet normal 0 0 1
    outer loop
      vertex -1.8 0 3
      vertex -3 0 3
      vertex -2.42705 -1.76336 3
    endloop
  endfacet
  facet normal -0.951056 -0.309017 0
    outer loop
      vertex -2.42705 -1.76336 1
      vertex -3 0 3
      vertex -3 0 1
    endloop
  endfacet
  facet normal -0.951056 -0.309017 0
    outer loop
      vertex -3 0 3
      vertex -2.42705 -1.76336 1
      vertex -2.42705 -1.76336 3
    endloop
  endfacet
  facet normal 0 -1 0
    outer loop
      vertex -0.927051 -2.85317 1
      vertex 44.9271 -2.85317 3
      vertex -0.927051 -2.85317 3
    endloop
  endfacet
  facet normal 0 -1 -0
    outer loop
      vertex 44.9271 -2.85317 3
      vertex -0.927051 -2.85317 1
      vertex 44.9271 -2.85317 1
    endloop
  endfacet
  facet normal 0.587785 -0.809017 0
    outer loop
      vertex 44.9271 -2.85317 1
      vertex 46.4271 -1.76336 3
      vertex 44.9271 -2.85317 3
    endloop
  endfacet
  facet normal 0.587785 -0.809017 0
    outer loop
      vertex 46.4271 -1.76336 3
      vertex 44.9271 -2.85317 1
      vertex 46.4271 -1.76336 1
    endloop
  endfacet
  facet normal 0 0 -1
    outer loop
      vertex 44.9271 -2.85317 1
      vertex 47 0 1
      vertex 46.4271 -1.76336 1
    endloop
  endfacet
  facet normal 0 0 -1
    outer loop
      vertex -3 0 1
      vertex 47 0 1
      vertex 44.9271 -2.85317 1
    endloop
  endfacet
  facet normal 0 0 -1
    outer loop
      vertex 47 0 1
      vertex -3 0 1
      vertex 47 33 1
    endloop
  endfacet
  facet normal 0 0 -1
    outer loop
      vertex 47 33 1
      vertex 44.9271 35.8532 1
      vertex 46.4271 34.7634 1
    endloop
  endfacet
  facet normal 0 0 -1
    outer loop
      vertex -3 0 1
      vertex 44.9271 -2.85317 1
      vertex -0.927051 -2.85317 1
    endloop
  endfacet
  facet normal 0 0 -1
    outer loop
      vertex -3 33 1
      vertex 47 33 1
      vertex -3 0 1
    endloop
  endfacet
  facet normal 0 0 -1
    outer loop
      vertex -3 0 1
      vertex -0.927051 -2.85317 1
      vertex -2.42705 -1.76336 1
    endloop
  endfacet
  facet normal 0 0 -1
    outer loop
      vertex 47 33 1
      vertex -3 33 1
      vertex 44.9271 35.8532 1
    endloop
  endfacet
  facet normal -0 0 -1
    outer loop
      vertex 44.9271 35.8532 1
      vertex -3 33 1
      vertex -0.927051 35.8532 1
    endloop
  endfacet
  facet normal 0 0 -1
    outer loop
      vertex -0.927051 35.8532 1
      vertex -3 33 1
      vertex -2.42705 34.7634 1
    endloop
  endfacet
  facet normal -0.587785 -0.809017 0
    outer loop
      vertex -2.42705 -1.76336 1
      vertex -0.927051 -2.85317 3
      vertex -2.42705 -1.76336 3
    endloop
  endfacet
  facet normal -0.587785 -0.809017 -0
    outer loop
      vertex -0.927051 -2.85317 3
      vertex -2.42705 -1.76336 1
      vertex -0.927051 -2.85317 1
    endloop
  endfacet
  facet normal 0.951057 -0.309017 0
    outer loop
      vertex 46.4271 -1.76336 3
      vertex 47 0 1
      vertex 47 0 3
    endloop
  endfacet
  facet normal 0.951057 -0.309017 0
    outer loop
      vertex 47 0 1
      vertex 46.4271 -1.76336 3
      vertex 46.4271 -1.76336 1
    endloop
  endfacet
  facet normal 0.862796 0.498135 0.0862796
    outer loop
      vertex 1.8 0 3
      vertex 0.9 1.55885 3
      vertex 1.3 0 8
    endloop
  endfacet
  facet normal -0.862796 -0.498135 0.0862796
    outer loop
      vertex -1.3 0 8
      vertex -1.8 0 3
      vertex -0.9 -1.55885 3
    endloop
  endfacet
  facet normal 0 0 1
    outer loop
      vertex 0.65 1.12583 8
      vertex 0.65 -1.12583 8
      vertex 1.3 0 8
    endloop
  endfacet
  facet normal -0 0 1
    outer loop
      vertex -0.65 1.12583 8
      vertex 0.65 -1.12583 8
      vertex 0.65 1.12583 8
    endloop
  endfacet
  facet normal 0 0 1
    outer loop
      vertex -0.65 1.12583 8
      vertex -0.65 -1.12583 8
      vertex 0.65 -1.12583 8
    endloop
  endfacet
  facet normal 0 -0 1
    outer loop
      vertex -0.65 -1.12583 8
      vertex -0.65 1.12583 8
      vertex -1.3 0 8
    endloop
  endfacet
  facet normal 0 0.996271 0.0862796
    outer loop
      vertex 0.9 1.55885 3
      vertex -0.65 1.12583 8
      vertex 0.65 1.12583 8
    endloop
  endfacet
  facet normal 0 0.996271 0.0862796
    outer loop
      vertex -0.65 1.12583 8
      vertex 0.9 1.55885 3
      vertex -0.9 1.55885 3
    endloop
  endfacet
  facet normal 0.862796 0.498135 0.0862796
    outer loop
      vertex 0.9 1.55885 3
      vertex 0.65 1.12583 8
      vertex 1.3 0 8
    endloop
  endfacet
  facet normal -0.862796 -0.498135 0.0862796
    outer loop
      vertex -0.65 -1.12583 8
      vertex -1.3 0 8
      vertex -0.9 -1.55885 3
    endloop
  endfacet
  facet normal 0 -0.996271 0.0862796
    outer loop
      vertex -0.9 -1.55885 3
      vertex 0.65 -1.12583 8
      vertex -0.65 -1.12583 8
    endloop
  endfacet
  facet normal 0 -0.996271 0.0862796
    outer loop
      vertex 0.65 -1.12583 8
      vertex -0.9 -1.55885 3
      vertex 0.9 -1.55885 3
    endloop
  endfacet
  facet normal 0.862796 -0.498135 0.0862796
    outer loop
      vertex 1.3 0 8
      vertex 0.9 -1.55885 3
      vertex 1.8 0 3
    endloop
  endfacet
  facet normal -0.862796 0.498135 0.0862796
    outer loop
      vertex -0.9 1.55885 3
      vertex -1.3 0 8
      vertex -0.65 1.12583 8
    endloop
  endfacet
  facet normal -0.862796 0.498135 0.0862796
    outer loop
      vertex -0.9 1.55885 3
      vertex -1.8 0 3
      vertex -1.3 0 8
    endloop
  endfacet
  facet normal 0.862796 -0.498135 0.0862796
    outer loop
      vertex 1.3 0 8
      vertex 0.65 -1.12583 8
      vertex 0.9 -1.55885 3
    endloop
  endfacet
  facet normal 0.862796 0.498135 0.0862796
    outer loop
      vertex 1.8 33 3
      vertex 0.9 34.5588 3
      vertex 1.3 33 8
    endloop
  endfacet
  facet normal -0.862796 -0.498135 0.0862795
    outer loop
      vertex -0.65 31.8742 8
      vertex -1.8 33 3
      vertex -0.9 31.4412 3
    endloop
  endfacet
  facet normal -0.862796 0.498135 0.0862796
    outer loop
      vertex -0.9 34.5588 3
      vertex -1.8 33 3
      vertex -1.3 33 8
    endloop
  endfacet
  facet normal -0.862796 -0.498135 0.0862796
    outer loop
      vertex -1.3 33 8
      vertex -1.8 33 3
      vertex -0.65 31.8742 8
    endloop
  endfacet
  facet normal 0 -0.996271 0.0862795
    outer loop
      vertex -0.9 31.4412 3
      vertex 0.65 31.8742 8
      vertex -0.65 31.8742 8
    endloop
  endfacet
  facet normal 0 -0.996271 0.0862795
    outer loop
      vertex 0.65 31.8742 8
      vertex -0.9 31.4412 3
      vertex 0.9 31.4412 3
    endloop
  endfacet
  facet normal 0.862796 0.498136 0.0862797
    outer loop
      vertex 0.9 34.5588 3
      vertex 0.65 34.1258 8
      vertex 1.3 33 8
    endloop
  endfacet
  facet normal 0 0 1
    outer loop
      vertex 0.65 34.1258 8
      vertex 0.65 31.8742 8
      vertex 1.3 33 8
    endloop
  endfacet
  facet normal -0 0 1
    outer loop
      vertex -0.65 34.1258 8
      vertex 0.65 31.8742 8
      vertex 0.65 34.1258 8
    endloop
  endfacet
  facet normal 0 0 1
    outer loop
      vertex -0.65 34.1258 8
      vertex -0.65 31.8742 8
      vertex 0.65 31.8742 8
    endloop
  endfacet
  facet normal 0 -0 1
    outer loop
      vertex -0.65 31.8742 8
      vertex -0.65 34.1258 8
      vertex -1.3 33 8
    endloop
  endfacet
  facet normal 0 0.996271 0.0862798
    outer loop
      vertex 0.9 34.5588 3
      vertex -0.65 34.1258 8
      vertex 0.65 34.1258 8
    endloop
  endfacet
  facet normal 0 0.996271 0.0862798
    outer loop
      vertex -0.65 34.1258 8
      vertex 0.9 34.5588 3
      vertex -0.9 34.5588 3
    endloop
  endfacet
  facet normal 0.862796 -0.498135 0.0862795
    outer loop
      vertex 1.8 33 3
      vertex 0.65 31.8742 8
      vertex 0.9 31.4412 3
    endloop
  endfacet
  facet normal 0.862796 -0.498135 0.0862796
    outer loop
      vertex 1.3 33 8
      vertex 0.65 31.8742 8
      vertex 1.8 33 3
    endloop
  endfacet
  facet normal -0.862796 0.498136 0.0862797
    outer loop
      vertex -0.9 34.5588 3
      vertex -1.3 33 8
      vertex -0.65 34.1258 8
    endloop
  endfacet
  facet normal 0.862796 0.498135 0.0862796
    outer loop
      vertex 45.8 0 3
      vertex 44.9 1.55885 3
      vertex 45.3 0 8
    endloop
  endfacet
  facet normal -0.862796 -0.498135 0.0862796
    outer loop
      vertex 42.7 0 8
      vertex 42.2 0 3
      vertex 43.1 -1.55885 3
    endloop
  endfacet
  facet normal 0 0 1
    outer loop
      vertex 44.65 1.12583 8
      vertex 44.65 -1.12583 8
      vertex 45.3 0 8
    endloop
  endfacet
  facet normal -0 0 1
    outer loop
      vertex 43.35 1.12583 8
      vertex 44.65 -1.12583 8
      vertex 44.65 1.12583 8
    endloop
  endfacet
  facet normal 0 0 1
    outer loop
      vertex 43.35 1.12583 8
      vertex 43.35 -1.12583 8
      vertex 44.65 -1.12583 8
    endloop
  endfacet
  facet normal 0 -0 1
    outer loop
      vertex 43.35 -1.12583 8
      vertex 43.35 1.12583 8
      vertex 42.7 0 8
    endloop
  endfacet
  facet normal 0 0.996271 0.0862796
    outer loop
      vertex 44.9 1.55885 3
      vertex 43.35 1.12583 8
      vertex 44.65 1.12583 8
    endloop
  endfacet
  facet normal 0 0.996271 0.0862796
    outer loop
      vertex 43.35 1.12583 8
      vertex 44.9 1.55885 3
      vertex 43.1 1.55885 3
    endloop
  endfacet
  facet normal 0.862797 0.498134 0.0862796
    outer loop
      vertex 44.9 1.55885 3
      vertex 44.65 1.12583 8
      vertex 45.3 0 8
    endloop
  endfacet
  facet normal -0.862797 -0.498134 0.0862796
    outer loop
      vertex 43.35 -1.12583 8
      vertex 42.7 0 8
      vertex 43.1 -1.55885 3
    endloop
  endfacet
  facet normal 0 -0.996271 0.0862796
    outer loop
      vertex 43.1 -1.55885 3
      vertex 44.65 -1.12583 8
      vertex 43.35 -1.12583 8
    endloop
  endfacet
  facet normal 0 -0.996271 0.0862796
    outer loop
      vertex 44.65 -1.12583 8
      vertex 43.1 -1.55885 3
      vertex 44.9 -1.55885 3
    endloop
  endfacet
  facet normal 0.862796 -0.498135 0.0862796
    outer loop
      vertex 45.3 0 8
      vertex 44.9 -1.55885 3
      vertex 45.8 0 3
    endloop
  endfacet
  facet normal -0.862797 0.498134 0.0862796
    outer loop
      vertex 43.1 1.55885 3
      vertex 42.7 0 8
      vertex 43.35 1.12583 8
    endloop
  endfacet
  facet normal -0.862796 0.498135 0.0862796
    outer loop
      vertex 43.1 1.55885 3
      vertex 42.2 0 3
      vertex 42.7 0 8
    endloop
  endfacet
  facet normal 0.862797 -0.498134 0.0862796
    outer loop
      vertex 45.3 0 8
      vertex 44.65 -1.12583 8
      vertex 44.9 -1.55885 3
    endloop
  endfacet
  facet normal 0.862796 0.498135 0.0862796
    outer loop
      vertex 45.8 33 3
      vertex 44.9 34.5588 3
      vertex 45.3 33 8
    endloop
  endfacet
  facet normal -0.862796 0.498135 0.0862797
    outer loop
      vertex 43.1 34.5588 3
      vertex 42.7 33 8
      vertex 43.35 34.1258 8
    endloop
  endfacet
  facet normal -0.862796 -0.498135 0.0862795
    outer loop
      vertex 43.35 31.8742 8
      vertex 42.2 33 3
      vertex 43.1 31.4412 3
    endloop
  endfacet
  facet normal 0 0.996271 0.0862798
    outer loop
      vertex 44.9 34.5588 3
      vertex 43.35 34.1258 8
      vertex 44.65 34.1258 8
    endloop
  endfacet
  facet normal 0 0.996271 0.0862798
    outer loop
      vertex 43.35 34.1258 8
      vertex 44.9 34.5588 3
      vertex 43.1 34.5588 3
    endloop
  endfacet
  facet normal 0 -0.996271 0.0862795
    outer loop
      vertex 43.1 31.4412 3
      vertex 44.65 31.8742 8
      vertex 43.35 31.8742 8
    endloop
  endfacet
  facet normal 0 -0.996271 0.0862795
    outer loop
      vertex 44.65 31.8742 8
      vertex 43.1 31.4412 3
      vertex 44.9 31.4412 3
    endloop
  endfacet
  facet normal 0.862796 0.498135 0.0862797
    outer loop
      vertex 44.9 34.5588 3
      vertex 44.65 34.1258 8
      vertex 45.3 33 8
    endloop
  endfacet
  facet normal -0.862796 0.498135 0.0862796
    outer loop
      vertex 43.1 34.5588 3
      vertex 42.2 33 3
      vertex 42.7 33 8
    endloop
  endfacet
  facet normal 0.862796 -0.498135 0.0862795
    outer loop
      vertex 45.8 33 3
      vertex 44.65 31.8742 8
      vertex 44.9 31.4412 3
    endloop
  endfacet
  facet normal 0.862797 -0.498134 0.0862797
    outer loop
      vertex 45.3 33 8
      vertex 44.65 31.8742 8
      vertex 45.8 33 3
    endloop
  endfacet
  facet normal -0.862797 -0.498134 0.0862797
    outer loop
      vertex 42.7 33 8
      vertex 42.2 33 3
      vertex 43.35 31.8742 8
    endloop
  endfacet
  facet normal 0 0 1
    outer loop
      vertex 44.65 34.1258 8
      vertex 44.65 31.8742 8
      vertex 45.3 33 8
    endloop
  endfacet
  facet normal -0 0 1
    outer loop
      vertex 43.35 34.1258 8
      vertex 44.65 31.8742 8
      vertex 44.65 34.1258 8
    endloop
  endfacet
  facet normal 0 0 1
    outer loop
      vertex 43.35 34.1258 8
      vertex 43.35 31.8742 8
      vertex 44.65 31.8742 8
    endloop
  endfacet
  facet normal 0 -0 1
    outer loop
      vertex 43.35 31.8742 8
      vertex 43.35 34.1258 8
      vertex 42.7 33 8
    endloop
  endfacet
endsolid OpenSCAD_Model
