solid OpenSCAD_Model
  facet normal 0.866026 0.5 0
    outer loop
      vertex 8.85225 3.94128 61.96
      vertex 7.83937 5.69564 0
      vertex 7.83937 5.69564 61.96
    endloop
  endfacet
  facet normal 0.866026 0.5 0
    outer loop
      vertex 7.83937 5.69564 0
      vertex 8.85225 3.94128 61.96
      vertex 8.85225 3.94128 0
    endloop
  endfacet
  facet normal 0.743145 0.669131 0
    outer loop
      vertex 7.83937 5.69564 61.96
      vertex 6.48388 7.20107 0
      vertex 6.48388 7.20107 61.96
    endloop
  endfacet
  facet normal 0.743145 0.669131 0
    outer loop
      vertex 6.48388 7.20107 0
      vertex 7.83937 5.69564 61.96
      vertex 7.83937 5.69564 0
    endloop
  endfacet
  facet normal 0.406737 0.913545 -0
    outer loop
      vertex 4.845 8.39179 0
      vertex 2.99437 9.21574 61.96
      vertex 4.845 8.39179 61.96
    endloop
  endfacet
  facet normal 0.406737 0.913545 0
    outer loop
      vertex 2.99437 9.21574 61.96
      vertex 4.845 8.39179 0
      vertex 2.99437 9.21574 0
    endloop
  endfacet
  facet normal -0.406737 0.913545 0
    outer loop
      vertex -2.99437 9.21574 0
      vertex -4.845 8.39179 61.96
      vertex -2.99437 9.21574 61.96
    endloop
  endfacet
  facet normal -0.406737 0.913545 0
    outer loop
      vertex -4.845 8.39179 61.96
      vertex -2.99437 9.21574 0
      vertex -4.845 8.39179 0
    endloop
  endfacet
  facet normal 0.994522 -0.104529 0
    outer loop
      vertex 9.47825 -2.01466 61.96
      vertex 9.69 0 0
      vertex 9.69 0 61.96
    endloop
  endfacet
  facet normal 0.994522 -0.104529 0
    outer loop
      vertex 9.69 0 0
      vertex 9.47825 -2.01466 61.96
      vertex 9.47825 -2.01466 0
    endloop
  endfacet
  facet normal 0.951057 0.309017 0
    outer loop
      vertex 9.47825 2.01466 61.96
      vertex 8.85225 3.94128 0
      vertex 8.85225 3.94128 61.96
    endloop
  endfacet
  facet normal 0.951057 0.309017 0
    outer loop
      vertex 8.85225 3.94128 0
      vertex 9.47825 2.01466 61.96
      vertex 9.47825 2.01466 0
    endloop
  endfacet
  facet normal 0 1 -0
    outer loop
      vertex 1.01288 9.63692 0
      vertex -1.01288 9.63692 61.96
      vertex 1.01288 9.63692 61.96
    endloop
  endfacet
  facet normal 0 1 0
    outer loop
      vertex -1.01288 9.63692 61.96
      vertex 1.01288 9.63692 0
      vertex -1.01288 9.63692 0
    endloop
  endfacet
  facet normal 0.587785 0.809017 -0
    outer loop
      vertex 6.48388 7.20107 0
      vertex 4.845 8.39179 61.96
      vertex 6.48388 7.20107 61.96
    endloop
  endfacet
  facet normal 0.587785 0.809017 0
    outer loop
      vertex 4.845 8.39179 61.96
      vertex 6.48388 7.20107 0
      vertex 4.845 8.39179 0
    endloop
  endfacet
  facet normal -0.587785 0.809017 0
    outer loop
      vertex -4.845 8.39179 0
      vertex -6.48388 7.20107 61.96
      vertex -4.845 8.39179 61.96
    endloop
  endfacet
  facet normal -0.587785 0.809017 0
    outer loop
      vertex -6.48388 7.20107 61.96
      vertex -4.845 8.39179 0
      vertex -6.48388 7.20107 0
    endloop
  endfacet
  facet normal -0.207912 0.978148 0
    outer loop
      vertex -1.01288 9.63692 0
      vertex -2.99437 9.21574 61.96
      vertex -1.01288 9.63692 61.96
    endloop
  endfacet
  facet normal -0.207912 0.978148 0
    outer loop
      vertex -2.99437 9.21574 61.96
      vertex -1.01288 9.63692 0
      vertex -2.99437 9.21574 0
    endloop
  endfacet
  facet normal -0.743145 0.669131 0
    outer loop
      vertex -7.61966 5.93966 0
      vertex -6.48388 7.20107 61.96
      vertex -6.48388 7.20107 0
    endloop
  endfacet
  facet normal -0.743145 0.669131 0
    outer loop
      vertex -6.48388 7.20107 61.96
      vertex -7.61966 5.93966 0
      vertex -7.61966 5.93966 61.96
    endloop
  endfacet
  facet normal 0.994522 0.104529 0
    outer loop
      vertex 9.69 0 61.96
      vertex 9.47825 2.01466 0
      vertex 9.47825 2.01466 61.96
    endloop
  endfacet
  facet normal 0.994522 0.104529 0
    outer loop
      vertex 9.47825 2.01466 0
      vertex 9.69 0 61.96
      vertex 9.69 0 0
    endloop
  endfacet
  facet normal 0.587785 -0.809017 0
    outer loop
      vertex 5.65847 -7.80076 0
      vertex 6.48388 -7.20107 61.96
      vertex 5.65847 -7.80076 61.96
    endloop
  endfacet
  facet normal 0.587785 -0.809017 0
    outer loop
      vertex 6.48388 -7.20107 61.96
      vertex 5.65847 -7.80076 0
      vertex 6.48388 -7.20107 0
    endloop
  endfacet
  facet normal 0.207912 0.978148 -0
    outer loop
      vertex 2.99437 9.21574 0
      vertex 1.01288 9.63692 61.96
      vertex 2.99437 9.21574 61.96
    endloop
  endfacet
  facet normal 0.207912 0.978148 0
    outer loop
      vertex 1.01288 9.63692 61.96
      vertex 2.99437 9.21574 0
      vertex 1.01288 9.63692 0
    endloop
  endfacet
  facet normal 0 0 1
    outer loop
      vertex 7.45 0 61.96
      vertex 9.69 0 61.96
      vertex 9.47825 2.01466 61.96
    endloop
  endfacet
  facet normal 0 0 1
    outer loop
      vertex 7.19615 1.9282 61.96
      vertex 9.47825 2.01466 61.96
      vertex 8.85225 3.94128 61.96
    endloop
  endfacet
  facet normal 0 0 1
    outer loop
      vertex 9.69 0 61.96
      vertex 7.45 0 61.96
      vertex 9.47825 -2.01466 61.96
    endloop
  endfacet
  facet normal 0 0 1
    outer loop
      vertex 6.45189 3.725 61.96
      vertex 8.85225 3.94128 61.96
      vertex 7.83937 5.69564 61.96
    endloop
  endfacet
  facet normal -0 0 1
    outer loop
      vertex 7.19615 -1.9282 61.96
      vertex 9.47825 -2.01466 61.96
      vertex 7.45 0 61.96
    endloop
  endfacet
  facet normal 0 0 1
    outer loop
      vertex 9.47825 -2.01466 61.96
      vertex 7.19615 -1.9282 61.96
      vertex 8.85225 -3.94128 61.96
    endloop
  endfacet
  facet normal 0 0 1
    outer loop
      vertex 9.47825 2.01466 61.96
      vertex 7.19615 1.9282 61.96
      vertex 7.45 0 61.96
    endloop
  endfacet
  facet normal 0 0 1
    outer loop
      vertex 5.26795 5.26795 61.96
      vertex 7.83937 5.69564 61.96
      vertex 6.48388 7.20107 61.96
    endloop
  endfacet
  facet normal 0 0 1
    outer loop
      vertex 8.85225 3.94128 61.96
      vertex 6.45189 3.725 61.96
      vertex 7.19615 1.9282 61.96
    endloop
  endfacet
  facet normal 0 0 1
    outer loop
      vertex 7.83937 5.69564 61.96
      vertex 5.26795 5.26795 61.96
      vertex 6.45189 3.725 61.96
    endloop
  endfacet
  facet normal 0 0 1
    outer loop
      vertex 3.725 6.45189 61.96
      vertex 6.48388 7.20107 61.96
      vertex 4.845 8.39179 61.96
    endloop
  endfacet
  facet normal 0 0 1
    outer loop
      vertex 6.48388 7.20107 61.96
      vertex 3.725 6.45189 61.96
      vertex 5.26795 5.26795 61.96
    endloop
  endfacet
  facet normal 0 0 1
    outer loop
      vertex 2.99437 9.21574 61.96
      vertex 3.725 6.45189 61.96
      vertex 4.845 8.39179 61.96
    endloop
  endfacet
  facet normal 0 0 1
    outer loop
      vertex 2.99437 9.21574 61.96
      vertex 1.9282 7.19615 61.96
      vertex 3.725 6.45189 61.96
    endloop
  endfacet
  facet normal 0 0 1
    outer loop
      vertex 1.01288 9.63692 61.96
      vertex 1.9282 7.19615 61.96
      vertex 2.99437 9.21574 61.96
    endloop
  endfacet
  facet normal 0 0 1
    outer loop
      vertex 1.01288 9.63692 61.96
      vertex 0 7.45 61.96
      vertex 1.9282 7.19615 61.96
    endloop
  endfacet
  facet normal -0 0 1
    outer loop
      vertex -1.01288 9.63692 61.96
      vertex 0 7.45 61.96
      vertex 1.01288 9.63692 61.96
    endloop
  endfacet
  facet normal 0 0 1
    outer loop
      vertex -1.01288 9.63692 61.96
      vertex -1.9282 7.19615 61.96
      vertex 0 7.45 61.96
    endloop
  endfacet
  facet normal -0 0 1
    outer loop
      vertex -2.99437 9.21574 61.96
      vertex -1.9282 7.19615 61.96
      vertex -1.01288 9.63692 61.96
    endloop
  endfacet
  facet normal 0 0 1
    outer loop
      vertex -2.99437 9.21574 61.96
      vertex -3.725 6.45189 61.96
      vertex -1.9282 7.19615 61.96
    endloop
  endfacet
  facet normal -0 0 1
    outer loop
      vertex -4.845 8.39179 61.96
      vertex -3.725 6.45189 61.96
      vertex -2.99437 9.21574 61.96
    endloop
  endfacet
  facet normal -0 0 1
    outer loop
      vertex -6.48388 7.20107 61.96
      vertex -3.725 6.45189 61.96
      vertex -4.845 8.39179 61.96
    endloop
  endfacet
  facet normal 0 0 1
    outer loop
      vertex -3.725 6.45189 61.96
      vertex -6.48388 7.20107 61.96
      vertex -5.26795 5.26795 61.96
    endloop
  endfacet
  facet normal -0 0 1
    outer loop
      vertex -7.61966 5.93966 61.96
      vertex -5.26795 5.26795 61.96
      vertex -6.48388 7.20107 61.96
    endloop
  endfacet
  facet normal 0 0 1
    outer loop
      vertex -5.26795 5.26795 61.96
      vertex -7.61966 5.93966 61.96
      vertex -6.45189 3.725 61.96
    endloop
  endfacet
  facet normal 0 0 1
    outer loop
      vertex -9.69 7.45 61.96
      vertex -7.19615 1.9282 61.96
      vertex -7.61966 5.93966 61.96
    endloop
  endfacet
  facet normal 0 0 1
    outer loop
      vertex -6.45189 3.725 61.96
      vertex -7.61966 5.93966 61.96
      vertex -7.19615 1.9282 61.96
    endloop
  endfacet
  facet normal -0 0 1
    outer loop
      vertex 6.45189 -3.725 61.96
      vertex 8.85225 -3.94128 61.96
      vertex 7.19615 -1.9282 61.96
    endloop
  endfacet
  facet normal 0 0 1
    outer loop
      vertex 8.85225 -3.94128 61.96
      vertex 6.45189 -3.725 61.96
      vertex 7.83937 -5.69564 61.96
    endloop
  endfacet
  facet normal -0 0 1
    outer loop
      vertex 5.26795 -5.26795 61.96
      vertex 7.83937 -5.69564 61.96
      vertex 6.45189 -3.725 61.96
    endloop
  endfacet
  facet normal 0 0 1
    outer loop
      vertex 7.83937 -5.69564 61.96
      vertex 5.26795 -5.26795 61.96
      vertex 6.48388 -7.20107 61.96
    endloop
  endfacet
  facet normal -0 0 1
    outer loop
      vertex 4.5252 -5.83787 61.96
      vertex 6.48388 -7.20107 61.96
      vertex 5.26795 -5.26795 61.96
    endloop
  endfacet
  facet normal 0 0 1
    outer loop
      vertex 6.48388 -7.20107 61.96
      vertex 4.5252 -5.83787 61.96
      vertex 5.65847 -7.80076 61.96
    endloop
  endfacet
  facet normal 0 0 1
    outer loop
      vertex 2.79315 -6.83787 61.96
      vertex 2.99437 -9.21574 61.96
      vertex 3.92642 -8.80076 61.96
    endloop
  endfacet
  facet normal -0 0 1
    outer loop
      vertex 1.9282 -7.19615 61.96
      vertex 2.99437 -9.21574 61.96
      vertex 2.79315 -6.83787 61.96
    endloop
  endfacet
  facet normal 0 0 1
    outer loop
      vertex 1.9282 -7.19615 61.96
      vertex 1.01288 -9.63692 61.96
      vertex 2.99437 -9.21574 61.96
    endloop
  endfacet
  facet normal -0 0 1
    outer loop
      vertex 0 -7.45 61.96
      vertex 1.01288 -9.63692 61.96
      vertex 1.9282 -7.19615 61.96
    endloop
  endfacet
  facet normal 0 0 1
    outer loop
      vertex 0 -7.45 61.96
      vertex -1.01288 -9.63692 61.96
      vertex 1.01288 -9.63692 61.96
    endloop
  endfacet
  facet normal 0 0 1
    outer loop
      vertex -1.9282 -7.19615 61.96
      vertex -1.01288 -9.63692 61.96
      vertex 0 -7.45 61.96
    endloop
  endfacet
  facet normal 0 0 1
    outer loop
      vertex -1.9282 -7.19615 61.96
      vertex -2.99437 -9.21574 61.96
      vertex -1.01288 -9.63692 61.96
    endloop
  endfacet
  facet normal 0 0 1
    outer loop
      vertex -3.725 -6.45189 61.96
      vertex -2.99437 -9.21574 61.96
      vertex -1.9282 -7.19615 61.96
    endloop
  endfacet
  facet normal 0 0 1
    outer loop
      vertex -3.725 -6.45189 61.96
      vertex -4.845 -8.39179 61.96
      vertex -2.99437 -9.21574 61.96
    endloop
  endfacet
  facet normal 0 0 1
    outer loop
      vertex -6.48388 -7.20107 61.96
      vertex -3.725 -6.45189 61.96
      vertex -5.26795 -5.26795 61.96
    endloop
  endfacet
  facet normal 0 0 1
    outer loop
      vertex -7.61966 -5.93966 61.96
      vertex -5.26795 -5.26795 61.96
      vertex -6.45189 -3.725 61.96
    endloop
  endfacet
  facet normal 0 0 1
    outer loop
      vertex -3.725 -6.45189 61.96
      vertex -6.48388 -7.20107 61.96
      vertex -4.845 -8.39179 61.96
    endloop
  endfacet
  facet normal 0 0 1
    outer loop
      vertex -7.61966 -5.93966 61.96
      vertex -6.45189 -3.725 61.96
      vertex -7.19615 -1.9282 61.96
    endloop
  endfacet
  facet normal 0 0 1
    outer loop
      vertex -5.26795 -5.26795 61.96
      vertex -7.61966 -5.93966 61.96
      vertex -6.48388 -7.20107 61.96
    endloop
  endfacet
  facet normal 0 0 1
    outer loop
      vertex -9.69 -7.45 61.96
      vertex -7.19615 -1.9282 61.96
      vertex -7.45 0 61.96
    endloop
  endfacet
  facet normal 0 0 1
    outer loop
      vertex -7.19615 1.9282 61.96
      vertex -9.69 7.45 61.96
      vertex -7.45 0 61.96
    endloop
  endfacet
  facet normal -0 0 1
    outer loop
      vertex -9.69 7.45 61.96
      vertex -7.61966 5.93966 61.96
      vertex -9.13 7.45 61.96
    endloop
  endfacet
  facet normal 0 0 1
    outer loop
      vertex -9.69 -7.45 61.96
      vertex -7.45 0 61.96
      vertex -9.69 7.45 61.96
    endloop
  endfacet
  facet normal 0 0 1
    outer loop
      vertex -7.19615 -1.9282 61.96
      vertex -9.69 -7.45 61.96
      vertex -7.61966 -5.93966 61.96
    endloop
  endfacet
  facet normal 0 0 1
    outer loop
      vertex -7.61966 -5.93966 61.96
      vertex -9.69 -7.45 61.96
      vertex -9.13 -7.45 61.96
    endloop
  endfacet
  facet normal 0.866026 -0.5 0
    outer loop
      vertex 7.83937 -5.69564 61.96
      vertex 8.85225 -3.94128 0
      vertex 8.85225 -3.94128 61.96
    endloop
  endfacet
  facet normal 0.866026 -0.5 0
    outer loop
      vertex 8.85225 -3.94128 0
      vertex 7.83937 -5.69564 61.96
      vertex 7.83937 -5.69564 0
    endloop
  endfacet
  facet normal 0.207912 -0.978148 0
    outer loop
      vertex 1.01288 -9.63692 27.1822
      vertex 2.99437 -9.21574 61.96
      vertex 1.01288 -9.63692 61.96
    endloop
  endfacet
  facet normal 0.207911 -0.978148 -3.66215e-08
    outer loop
      vertex 2.99437 -9.21574 9.16375
      vertex 1.01288 -9.63692 27.1822
      vertex 1.42997 -9.54826 15.2394
    endloop
  endfacet
  facet normal 0.207911 -0.978148 -4.18272e-08
    outer loop
      vertex 2.07863 -9.41038 9.98
      vertex 1.42997 -9.54826 15.2394
      vertex 1.61364 -9.50922 9.98
    endloop
  endfacet
  facet normal 0.207912 -0.978148 -2.07674e-09
    outer loop
      vertex 2.8865 -9.23867 9.28007
      vertex 1.42997 -9.54826 15.2394
      vertex 2.07863 -9.41038 9.98
    endloop
  endfacet
  facet normal 0.207913 -0.978147 4.37826e-07
    outer loop
      vertex 2.99437 -9.21574 9.16375
      vertex 1.42997 -9.54826 15.2394
      vertex 2.8865 -9.23867 9.28007
    endloop
  endfacet
  facet normal 0.207912 -0.978148 0
    outer loop
      vertex 1.01288 -9.63692 27.1822
      vertex 2.99437 -9.21574 9.16375
      vertex 2.99437 -9.21574 61.96
    endloop
  endfacet
  facet normal 0.207913 -0.978147 0
    outer loop
      vertex 2.8865 -9.23867 0.699929
      vertex 2.99437 -9.21574 0
      vertex 2.99437 -9.21574 0.816252
    endloop
  endfacet
  facet normal 0.207912 -0.978148 -1.80287e-07
    outer loop
      vertex 2.99437 -9.21574 0
      vertex 2.8865 -9.23867 0.699929
      vertex 2.07863 -9.41038 0
    endloop
  endfacet
  facet normal 0.406737 -0.913545 0
    outer loop
      vertex 2.99437 -9.21574 9.16375
      vertex 3.92642 -8.80076 61.96
      vertex 2.99437 -9.21574 61.96
    endloop
  endfacet
  facet normal 0.406736 -0.913546 1.29432e-08
    outer loop
      vertex 3.13454 -9.15333 8.98
      vertex 3.92642 -8.80076 61.96
      vertex 2.99437 -9.21574 9.16375
    endloop
  endfacet
  facet normal 0.406737 -0.913545 0
    outer loop
      vertex 3.92642 -8.80076 0
      vertex 3.13454 -9.15333 8.98
      vertex 3.13454 -9.15333 1
    endloop
  endfacet
  facet normal 0.406737 -0.913545 0
    outer loop
      vertex 3.92642 -8.80076 0
      vertex 2.99437 -9.21574 0.816252
      vertex 2.99437 -9.21574 0
    endloop
  endfacet
  facet normal 0.406737 -0.913545 0
    outer loop
      vertex 3.13454 -9.15333 8.98
      vertex 3.92642 -8.80076 0
      vertex 3.92642 -8.80076 61.96
    endloop
  endfacet
  facet normal 0.406737 -0.913545 -3.43045e-07
    outer loop
      vertex 2.99437 -9.21574 0.816252
      vertex 3.92642 -8.80076 0
      vertex 3.13454 -9.15333 1
    endloop
  endfacet
  facet normal 0.951057 -0.309017 0
    outer loop
      vertex 8.85225 -3.94128 61.96
      vertex 9.47825 -2.01466 0
      vertex 9.47825 -2.01466 61.96
    endloop
  endfacet
  facet normal 0.951057 -0.309017 0
    outer loop
      vertex 9.47825 -2.01466 0
      vertex 8.85225 -3.94128 61.96
      vertex 8.85225 -3.94128 0
    endloop
  endfacet
  facet normal -0.207912 -0.978148 0
    outer loop
      vertex -2.99437 -9.21574 61.96
      vertex -1.01288 -9.63692 27.1822
      vertex -1.01288 -9.63692 61.96
    endloop
  endfacet
  facet normal -0.207912 -0.978148 0
    outer loop
      vertex -2.99437 -9.21574 9.98
      vertex -1.01288 -9.63692 27.1822
      vertex -2.99437 -9.21574 61.96
    endloop
  endfacet
  facet normal -0.207912 -0.978148 -3.58654e-08
    outer loop
      vertex -1.01288 -9.63692 27.1822
      vertex -2.99437 -9.21574 9.98
      vertex -1.42997 -9.54826 15.2394
    endloop
  endfacet
  facet normal -0.207912 -0.978148 -3.07025e-08
    outer loop
      vertex -1.42997 -9.54826 15.2394
      vertex -2.99437 -9.21574 9.98
      vertex -1.61364 -9.50922 9.98
    endloop
  endfacet
  facet normal 0 -1 0
    outer loop
      vertex -1.01288 -9.63692 61.96
      vertex 0 -9.63692 38.2669
      vertex 1.01288 -9.63692 61.96
    endloop
  endfacet
  facet normal 0 -1 0
    outer loop
      vertex -1.01288 -9.63692 61.96
      vertex -0.382053 -9.63692 38.0463
      vertex 0 -9.63692 38.2669
    endloop
  endfacet
  facet normal 0 -1 0
    outer loop
      vertex -1.01288 -9.63692 61.96
      vertex -0.496956 -9.63692 37.98
      vertex -0.382053 -9.63692 38.0463
    endloop
  endfacet
  facet normal -0 -1 0
    outer loop
      vertex -0.496956 -9.63692 37.98
      vertex -1.01288 -9.63692 61.96
      vertex -1.01288 -9.63692 27.1822
    endloop
  endfacet
  facet normal 0 -1 0
    outer loop
      vertex 0.382053 -9.63692 38.0463
      vertex 1.01288 -9.63692 61.96
      vertex 0 -9.63692 38.2669
    endloop
  endfacet
  facet normal 0 -1 0
    outer loop
      vertex 0.496956 -9.63692 37.98
      vertex 1.01288 -9.63692 61.96
      vertex 0.382053 -9.63692 38.0463
    endloop
  endfacet
  facet normal 0 -1 -0
    outer loop
      vertex 1.01288 -9.63692 61.96
      vertex 0.496956 -9.63692 37.98
      vertex 1.01288 -9.63692 27.1822
    endloop
  endfacet
  facet normal 0 0 -1
    outer loop
      vertex 7.45 0 0
      vertex 9.69 0 0
      vertex 9.47825 -2.01466 0
    endloop
  endfacet
  facet normal 0 0 -1
    outer loop
      vertex 7.19615 -1.9282 0
      vertex 9.47825 -2.01466 0
      vertex 8.85225 -3.94128 0
    endloop
  endfacet
  facet normal 0 0 -1
    outer loop
      vertex 9.69 0 0
      vertex 7.45 0 0
      vertex 9.47825 2.01466 0
    endloop
  endfacet
  facet normal 0 0 -1
    outer loop
      vertex 6.45189 -3.725 0
      vertex 8.85225 -3.94128 0
      vertex 7.83937 -5.69564 0
    endloop
  endfacet
  facet normal 0 0 -1
    outer loop
      vertex 7.19615 1.9282 0
      vertex 9.47825 2.01466 0
      vertex 7.45 0 0
    endloop
  endfacet
  facet normal -0 0 -1
    outer loop
      vertex 9.47825 2.01466 0
      vertex 7.19615 1.9282 0
      vertex 8.85225 3.94128 0
    endloop
  endfacet
  facet normal 0 0 -1
    outer loop
      vertex 9.47825 -2.01466 0
      vertex 7.19615 -1.9282 0
      vertex 7.45 0 0
    endloop
  endfacet
  facet normal 0 0 -1
    outer loop
      vertex 5.26795 -5.26795 0
      vertex 7.83937 -5.69564 0
      vertex 6.48388 -7.20107 0
    endloop
  endfacet
  facet normal 0 0 -1
    outer loop
      vertex 8.85225 -3.94128 0
      vertex 6.45189 -3.725 0
      vertex 7.19615 -1.9282 0
    endloop
  endfacet
  facet normal 0 0 -1
    outer loop
      vertex 4.5252 -5.83787 0
      vertex 6.48388 -7.20107 0
      vertex 5.65847 -7.80076 0
    endloop
  endfacet
  facet normal 0 0 -1
    outer loop
      vertex 7.83937 -5.69564 0
      vertex 5.26795 -5.26795 0
      vertex 6.45189 -3.725 0
    endloop
  endfacet
  facet normal 0 0 -1
    outer loop
      vertex 6.48388 -7.20107 0
      vertex 4.5252 -5.83787 0
      vertex 5.26795 -5.26795 0
    endloop
  endfacet
  facet normal 0 0 -1
    outer loop
      vertex 6.45189 3.725 0
      vertex 8.85225 3.94128 0
      vertex 7.19615 1.9282 0
    endloop
  endfacet
  facet normal -0 0 -1
    outer loop
      vertex 8.85225 3.94128 0
      vertex 6.45189 3.725 0
      vertex 7.83937 5.69564 0
    endloop
  endfacet
  facet normal 0 0 -1
    outer loop
      vertex 5.26795 5.26795 0
      vertex 7.83937 5.69564 0
      vertex 6.45189 3.725 0
    endloop
  endfacet
  facet normal -0 0 -1
    outer loop
      vertex 7.83937 5.69564 0
      vertex 5.26795 5.26795 0
      vertex 6.48388 7.20107 0
    endloop
  endfacet
  facet normal 0 0 -1
    outer loop
      vertex 3.725 6.45189 0
      vertex 6.48388 7.20107 0
      vertex 5.26795 5.26795 0
    endloop
  endfacet
  facet normal -0 0 -1
    outer loop
      vertex 6.48388 7.20107 0
      vertex 3.725 6.45189 0
      vertex 4.845 8.39179 0
    endloop
  endfacet
  facet normal 0 0 -1
    outer loop
      vertex 3.725 6.45189 0
      vertex 2.99437 9.21574 0
      vertex 4.845 8.39179 0
    endloop
  endfacet
  facet normal 0 0 -1
    outer loop
      vertex 1.9282 7.19615 0
      vertex 2.99437 9.21574 0
      vertex 3.725 6.45189 0
    endloop
  endfacet
  facet normal 0 0 -1
    outer loop
      vertex 1.9282 7.19615 0
      vertex 1.01288 9.63692 0
      vertex 2.99437 9.21574 0
    endloop
  endfacet
  facet normal 0 0 -1
    outer loop
      vertex 0 7.45 0
      vertex 1.01288 9.63692 0
      vertex 1.9282 7.19615 0
    endloop
  endfacet
  facet normal 0 0 -1
    outer loop
      vertex 0 7.45 0
      vertex -1.01288 9.63692 0
      vertex 1.01288 9.63692 0
    endloop
  endfacet
  facet normal 0 0 -1
    outer loop
      vertex -1.9282 7.19615 0
      vertex -1.01288 9.63692 0
      vertex 0 7.45 0
    endloop
  endfacet
  facet normal 0 0 -1
    outer loop
      vertex -1.9282 7.19615 0
      vertex -2.99437 9.21574 0
      vertex -1.01288 9.63692 0
    endloop
  endfacet
  facet normal 0 0 -1
    outer loop
      vertex -3.725 6.45189 0
      vertex -2.99437 9.21574 0
      vertex -1.9282 7.19615 0
    endloop
  endfacet
  facet normal 0 0 -1
    outer loop
      vertex -3.725 6.45189 0
      vertex -4.845 8.39179 0
      vertex -2.99437 9.21574 0
    endloop
  endfacet
  facet normal 0 0 -1
    outer loop
      vertex -6.48388 7.20107 0
      vertex -3.725 6.45189 0
      vertex -5.26795 5.26795 0
    endloop
  endfacet
  facet normal 0 0 -1
    outer loop
      vertex -7.61966 5.93966 0
      vertex -5.26795 5.26795 0
      vertex -6.45189 3.725 0
    endloop
  endfacet
  facet normal 0 0 -1
    outer loop
      vertex -3.725 6.45189 0
      vertex -6.48388 7.20107 0
      vertex -4.845 8.39179 0
    endloop
  endfacet
  facet normal 0 0 -1
    outer loop
      vertex -7.61966 5.93966 0
      vertex -6.45189 3.725 0
      vertex -7.19615 1.9282 0
    endloop
  endfacet
  facet normal 0 0 -1
    outer loop
      vertex -5.26795 5.26795 0
      vertex -7.61966 5.93966 0
      vertex -6.48388 7.20107 0
    endloop
  endfacet
  facet normal 0 0 -1
    outer loop
      vertex -9.69 0 0
      vertex -7.19615 1.9282 0
      vertex -7.45 0 0
    endloop
  endfacet
  facet normal 0 0 -1
    outer loop
      vertex -21.45 -14.9 0
      vertex -9.69 0 0
      vertex -9.69 -14.9 0
    endloop
  endfacet
  facet normal -0 0 -1
    outer loop
      vertex -9.69 0 0
      vertex -21.45 -14.9 0
      vertex -21.45 0 0
    endloop
  endfacet
  facet normal 0 0 -1
    outer loop
      vertex 6.45189 -20.725 0
      vertex 4.1 -19.3671 0
      vertex 6.45189 -13.275 0
    endloop
  endfacet
  facet normal 0 0 -1
    outer loop
      vertex 0 -24.45 0
      vertex 4.1 -19.3671 0
      vertex 6.45189 -20.725 0
    endloop
  endfacet
  facet normal 0 0 -1
    outer loop
      vertex 0 -24.45 0
      vertex 0 -21.7343 0
      vertex 4.1 -19.3671 0
    endloop
  endfacet
  facet normal 0 0 -1
    outer loop
      vertex 0 -24.45 0
      vertex -4.1 -19.3671 0
      vertex 0 -21.7343 0
    endloop
  endfacet
  facet normal 0 0 -1
    outer loop
      vertex -9.69 -14.9 0
      vertex -4.1 -14.6329 0
      vertex -4.1 -19.3671 0
    endloop
  endfacet
  facet normal -0 0 -1
    outer loop
      vertex -4.1 -14.6329 0
      vertex -9.69 -14.9 0
      vertex -5.26795 -5.26795 0
    endloop
  endfacet
  facet normal -0 0 -1
    outer loop
      vertex -5.26795 -5.26795 0
      vertex -9.69 -14.9 0
      vertex -6.45189 -3.725 0
    endloop
  endfacet
  facet normal 0 0 -1
    outer loop
      vertex -7.45 -27.55 0
      vertex -4.1 -19.3671 0
      vertex 0 -24.45 0
    endloop
  endfacet
  facet normal 0 0 -1
    outer loop
      vertex -9.69 -27.55 0
      vertex -4.1 -19.3671 0
      vertex -7.45 -27.55 0
    endloop
  endfacet
  facet normal 0 0 -1
    outer loop
      vertex -9.69 0 0
      vertex -6.45189 -3.725 0
      vertex -9.69 -14.9 0
    endloop
  endfacet
  facet normal 0 0 -1
    outer loop
      vertex -6.45189 -3.725 0
      vertex -9.69 0 0
      vertex -7.19615 -1.9282 0
    endloop
  endfacet
  facet normal 0 0 -1
    outer loop
      vertex -7.19615 -1.9282 0
      vertex -9.69 0 0
      vertex -7.45 0 0
    endloop
  endfacet
  facet normal -0 0 -1
    outer loop
      vertex -4.1 -19.3671 0
      vertex -9.69 -27.55 0
      vertex -9.69 -14.9 0
    endloop
  endfacet
  facet normal -0 0 -1
    outer loop
      vertex -7.19615 1.9282 0
      vertex -9.69 0 0
      vertex -7.61966 5.93966 0
    endloop
  endfacet
  facet normal 0 0 -1
    outer loop
      vertex -9.69 7.45 0
      vertex -7.61966 5.93966 0
      vertex -9.69 0 0
    endloop
  endfacet
  facet normal 0 0 -1
    outer loop
      vertex -7.61966 5.93966 0
      vertex -9.69 7.45 0
      vertex -9.13 7.45 0
    endloop
  endfacet
  facet normal 0 0 -1
    outer loop
      vertex 4.1 -14.6329 0
      vertex 6.45189 -13.275 0
      vertex 4.1 -19.3671 0
    endloop
  endfacet
  facet normal 0 0 -1
    outer loop
      vertex 4.1 -14.6329 0
      vertex 2.07863 -9.41038 0
      vertex 6.45189 -13.275 0
    endloop
  endfacet
  facet normal 0 0 -1
    outer loop
      vertex 0 -12.2657 0
      vertex 2.07863 -9.41038 0
      vertex 4.1 -14.6329 0
    endloop
  endfacet
  facet normal 0 0 -1
    outer loop
      vertex 0 -7.45 0
      vertex 2.07863 -9.41038 0
      vertex 0 -12.2657 0
    endloop
  endfacet
  facet normal 0 0 -1
    outer loop
      vertex 2.07863 -9.41038 0
      vertex 0 -7.45 0
      vertex 1.9282 -7.19615 0
    endloop
  endfacet
  facet normal 0 0 -1
    outer loop
      vertex 0 -12.2657 0
      vertex -1.9282 -7.19615 0
      vertex 0 -7.45 0
    endloop
  endfacet
  facet normal 0 0 -1
    outer loop
      vertex -4.1 -14.6329 0
      vertex -1.9282 -7.19615 0
      vertex 0 -12.2657 0
    endloop
  endfacet
  facet normal -0 0 -1
    outer loop
      vertex -1.9282 -7.19615 0
      vertex -4.1 -14.6329 0
      vertex -3.725 -6.45189 0
    endloop
  endfacet
  facet normal -0 0 -1
    outer loop
      vertex -3.725 -6.45189 0
      vertex -4.1 -14.6329 0
      vertex -5.26795 -5.26795 0
    endloop
  endfacet
  facet normal 0 0 -1
    outer loop
      vertex 2.99437 -9.21574 0
      vertex 2.79315 -6.83787 0
      vertex 3.92642 -8.80076 0
    endloop
  endfacet
  facet normal 0 0 -1
    outer loop
      vertex 1.9282 -7.19615 0
      vertex 2.99437 -9.21574 0
      vertex 2.07863 -9.41038 0
    endloop
  endfacet
  facet normal 0 0 -1
    outer loop
      vertex 2.99437 -9.21574 0
      vertex 1.9282 -7.19615 0
      vertex 2.79315 -6.83787 0
    endloop
  endfacet
  facet normal -0.743145 -0.669131 0
    outer loop
      vertex -7.45 -6.12808 9.98
      vertex -6.48388 -7.20107 9.98
      vertex -7.45 -6.12808 13
    endloop
  endfacet
  facet normal -0.743144 -0.669131 -3.31636e-08
    outer loop
      vertex -6.48388 -7.20107 61.96
      vertex -7.61966 -5.93966 13.1697
      vertex -7.45 -6.12808 13
    endloop
  endfacet
  facet normal -0.743145 -0.669131 -0
    outer loop
      vertex -6.48388 -7.20107 61.96
      vertex -7.45 -6.12808 13
      vertex -6.48388 -7.20107 9.98
    endloop
  endfacet
  facet normal -0.743145 -0.669131 0
    outer loop
      vertex -7.61966 -5.93966 13.1697
      vertex -6.48388 -7.20107 61.96
      vertex -7.61966 -5.93966 61.96
    endloop
  endfacet
  facet normal 0.743145 -0.669131 0
    outer loop
      vertex 6.48388 -7.20107 61.96
      vertex 7.83937 -5.69564 0
      vertex 7.83937 -5.69564 61.96
    endloop
  endfacet
  facet normal 0.743145 -0.669131 0
    outer loop
      vertex 7.83937 -5.69564 0
      vertex 6.48388 -7.20107 61.96
      vertex 6.48388 -7.20107 0
    endloop
  endfacet
  facet normal -0.587785 -0.809017 0
    outer loop
      vertex -6.48388 -7.20107 9.98
      vertex -4.845 -8.39179 61.96
      vertex -6.48388 -7.20107 61.96
    endloop
  endfacet
  facet normal -0.587785 -0.809017 -0
    outer loop
      vertex -4.845 -8.39179 61.96
      vertex -6.48388 -7.20107 9.98
      vertex -4.845 -8.39179 9.98
    endloop
  endfacet
  facet normal -0.406737 -0.913545 0
    outer loop
      vertex -4.845 -8.39179 9.98
      vertex -2.99437 -9.21574 61.96
      vertex -4.845 -8.39179 61.96
    endloop
  endfacet
  facet normal -0.406737 -0.913545 -0
    outer loop
      vertex -2.99437 -9.21574 61.96
      vertex -4.845 -8.39179 9.98
      vertex -2.99437 -9.21574 9.98
    endloop
  endfacet
  facet normal -1 0 0
    outer loop
      vertex -9.69 -27.55 0
      vertex -9.69 -14.9 3.21538
      vertex -9.69 -14.9 0
    endloop
  endfacet
  facet normal -1 0 0
    outer loop
      vertex -9.69 -28.55 3.21538
      vertex -9.69 -27.55 0
      vertex -9.69 -28.55 1
    endloop
  endfacet
  facet normal -1 0 0
    outer loop
      vertex -9.69 -27.55 0
      vertex -9.69 -28.55 3.21538
      vertex -9.69 -14.9 3.21538
    endloop
  endfacet
  facet normal -1 0 0
    outer loop
      vertex -9.69 0 14
      vertex -9.69 7.45 0
      vertex -9.69 0 0
    endloop
  endfacet
  facet normal -1 0 0
    outer loop
      vertex -9.69 7.45 0
      vertex -9.69 0 14
      vertex -9.69 7.45 61.96
    endloop
  endfacet
  facet normal -1 0 0
    outer loop
      vertex -9.69 -7.45 61.96
      vertex -9.69 0 14
      vertex -9.69 -7.45 14
    endloop
  endfacet
  facet normal -1 0 0
    outer loop
      vertex -9.69 0 14
      vertex -9.69 -7.45 61.96
      vertex -9.69 7.45 61.96
    endloop
  endfacet
  facet normal 0 -1 0
    outer loop
      vertex -9.69 -7.45 14
      vertex -9.13 -7.45 61.96
      vertex -9.69 -7.45 61.96
    endloop
  endfacet
  facet normal 0 -1 -0
    outer loop
      vertex -9.13 -7.45 61.96
      vertex -9.69 -7.45 14
      vertex -9.13 -7.45 14
    endloop
  endfacet
  facet normal 0 1 -0
    outer loop
      vertex -9.13 7.45 0
      vertex -9.69 7.45 61.96
      vertex -9.13 7.45 61.96
    endloop
  endfacet
  facet normal 0 1 0
    outer loop
      vertex -9.69 7.45 61.96
      vertex -9.13 7.45 0
      vertex -9.69 7.45 0
    endloop
  endfacet
  facet normal 0.707107 -0.707107 0
    outer loop
      vertex -7.61966 -5.93966 61.96
      vertex -8.45 -6.77 14
      vertex -7.61966 -5.93966 13.1697
    endloop
  endfacet
  facet normal 0.707107 -0.707107 -6.99812e-10
    outer loop
      vertex -9.13 -7.45 61.96
      vertex -8.45 -6.77 14
      vertex -7.61966 -5.93966 61.96
    endloop
  endfacet
  facet normal 0.707107 -0.707107 0
    outer loop
      vertex -8.45 -6.77 14
      vertex -9.13 -7.45 61.96
      vertex -9.13 -7.45 14
    endloop
  endfacet
  facet normal 0.707107 0.707107 0
    outer loop
      vertex -7.61966 5.93966 61.96
      vertex -9.13 7.45 0
      vertex -9.13 7.45 61.96
    endloop
  endfacet
  facet normal 0.707107 0.707107 0
    outer loop
      vertex -9.13 7.45 0
      vertex -7.61966 5.93966 61.96
      vertex -7.61966 5.93966 0
    endloop
  endfacet
  facet normal -0 0 1
    outer loop
      vertex -21.45 0 14
      vertex -9.69 -7.45 14
      vertex -9.69 0 14
    endloop
  endfacet
  facet normal 0 0 1
    outer loop
      vertex -21.45 -14.9 14
      vertex -9.69 -7.45 14
      vertex -21.45 0 14
    endloop
  endfacet
  facet normal 0 0 1
    outer loop
      vertex -9.69 -7.45 14
      vertex -21.45 -14.9 14
      vertex -11.05 -14.9 14
    endloop
  endfacet
  facet normal -0 0 1
    outer loop
      vertex -9.13 -7.45 14
      vertex -8.45 -14.9 14
      vertex -8.45 -6.77 14
    endloop
  endfacet
  facet normal -0 0 1
    outer loop
      vertex -9.69 -7.45 14
      vertex -8.45 -14.9 14
      vertex -9.13 -7.45 14
    endloop
  endfacet
  facet normal 0 0 1
    outer loop
      vertex -8.45 -14.9 14
      vertex -9.69 -7.45 14
      vertex -11.05 -14.9 14
    endloop
  endfacet
  facet normal 1 -0 0
    outer loop
      vertex -7.45 -14.9 13
      vertex -7.45 -6.12808 9.98
      vertex -7.45 -6.12808 13
    endloop
  endfacet
  facet normal 1 0 0
    outer loop
      vertex -7.45 -6.12808 9.98
      vertex -7.45 -14.9 13
      vertex -7.45 -14.9 9.98
    endloop
  endfacet
  facet normal 0.707107 0 0.707107
    outer loop
      vertex -8.45 -6.77 14
      vertex -7.45 -6.12808 13
      vertex -7.61966 -5.93966 13.1697
    endloop
  endfacet
  facet normal 0.707107 0 0.707107
    outer loop
      vertex -7.45 -14.9 13
      vertex -8.45 -6.77 14
      vertex -8.45 -14.9 14
    endloop
  endfacet
  facet normal 0.707107 0 0.707107
    outer loop
      vertex -8.45 -6.77 14
      vertex -7.45 -14.9 13
      vertex -7.45 -6.12808 13
    endloop
  endfacet
  facet normal 0 -1 0
    outer loop
      vertex -21.45 -14.9 14
      vertex -18.95 -14.9 10.1369
      vertex -16.6069 -14.9 12.48
    endloop
  endfacet
  facet normal 0 -1 0
    outer loop
      vertex -22.45 -14.9 13
      vertex -18.95 -14.9 6.82314
      vertex -18.95 -14.9 10.1369
    endloop
  endfacet
  facet normal 0 -1 0
    outer loop
      vertex -9.69 -14.9 0
      vertex -13.2931 -14.9 4.48
      vertex -16.6069 -14.9 4.48
    endloop
  endfacet
  facet normal 0 -1 0
    outer loop
      vertex -13.2931 -14.9 4.48
      vertex -9.69 -14.9 0
      vertex -11.05 -14.9 4
    endloop
  endfacet
  facet normal 0 -1 0
    outer loop
      vertex -22.45 -14.9 1
      vertex -18.95 -14.9 6.82314
      vertex -22.45 -14.9 13
    endloop
  endfacet
  facet normal 0 -1 0
    outer loop
      vertex -22.45 -14.9 1
      vertex -16.6069 -14.9 4.48
      vertex -18.95 -14.9 6.82314
    endloop
  endfacet
  facet normal 0 -1 0
    outer loop
      vertex -21.45 -14.9 0
      vertex -16.6069 -14.9 4.48
      vertex -22.45 -14.9 1
    endloop
  endfacet
  facet normal 0 -1 0
    outer loop
      vertex -9.69 -14.9 0
      vertex -16.6069 -14.9 4.48
      vertex -21.45 -14.9 0
    endloop
  endfacet
  facet normal 0 -1 0
    outer loop
      vertex -11.05 -14.9 4
      vertex -9.69 -14.9 0
      vertex -9.69 -14.9 3.21538
    endloop
  endfacet
  facet normal 0 -1 0
    outer loop
      vertex -18.95 -14.9 10.1369
      vertex -21.45 -14.9 14
      vertex -22.45 -14.9 13
    endloop
  endfacet
  facet normal 0 -1 0
    outer loop
      vertex -21.45 -14.9 14
      vertex -16.6069 -14.9 12.48
      vertex -11.05 -14.9 14
    endloop
  endfacet
  facet normal 0 -1 0
    outer loop
      vertex -13.2931 -14.9 12.48
      vertex -11.05 -14.9 14
      vertex -16.6069 -14.9 12.48
    endloop
  endfacet
  facet normal 0 -1 -0
    outer loop
      vertex -11.05 -14.9 14
      vertex -13.2931 -14.9 12.48
      vertex -11.05 -14.9 10.2369
    endloop
  endfacet
  facet normal 0 -1 -0
    outer loop
      vertex -11.05 -14.9 6.72315
      vertex -13.2931 -14.9 4.48
      vertex -11.05 -14.9 4
    endloop
  endfacet
  facet normal 0 -1 0
    outer loop
      vertex -11.05 -14.9 10.2369
      vertex -8.45 -14.9 14
      vertex -11.05 -14.9 14
    endloop
  endfacet
  facet normal 0 -1 -0
    outer loop
      vertex -8.45 -14.9 14
      vertex -11.05 -14.9 10.2369
      vertex -7.45 -14.9 13
    endloop
  endfacet
  facet normal 0 -1 0
    outer loop
      vertex -10.95 -14.9 10.1369
      vertex -7.45 -14.9 13
      vertex -11.05 -14.9 10.2369
    endloop
  endfacet
  facet normal 0 -1 0
    outer loop
      vertex -10.95 -14.9 10.1369
      vertex -7.45 -14.9 9.98
      vertex -7.45 -14.9 13
    endloop
  endfacet
  facet normal 0 -1 0
    outer loop
      vertex -10.95 -14.9 6.82314
      vertex -7.45 -14.9 9.98
      vertex -10.95 -14.9 10.1369
    endloop
  endfacet
  facet normal 0 -1 0
    outer loop
      vertex -10.95 -14.9 6.82314
      vertex -7.44 -14.9 9.98
      vertex -7.45 -14.9 9.98
    endloop
  endfacet
  facet normal 0 -1 0
    outer loop
      vertex -11.05 -14.9 4
      vertex -10.95 -14.9 6.82314
      vertex -11.05 -14.9 6.72315
    endloop
  endfacet
  facet normal 0 -1 -0
    outer loop
      vertex -10.95 -14.9 6.82314
      vertex -11.05 -14.9 4
      vertex -9.69 -14.9 3.21538
    endloop
  endfacet
  facet normal 0 -1 0
    outer loop
      vertex -10.95 -14.9 6.82314
      vertex -9.69 -14.9 3.21538
      vertex -7.44 -14.9 2.5
    endloop
  endfacet
  facet normal 0 -1 0
    outer loop
      vertex -7.44 -14.9 2.5
      vertex -9.69 -14.9 3.21538
      vertex -8.45 -14.9 2.5
    endloop
  endfacet
  facet normal 0 -1 0
    outer loop
      vertex -10.95 -14.9 6.82314
      vertex -7.44 -14.9 2.5
      vertex -7.44 -14.9 9.98
    endloop
  endfacet
  facet normal 0 1 -0
    outer loop
      vertex -16.6069 0 12.48
      vertex -21.45 0 14
      vertex -9.69 0 14
    endloop
  endfacet
  facet normal 0 1 0
    outer loop
      vertex -16.6069 0 12.48
      vertex -9.69 0 14
      vertex -13.2931 0 12.48
    endloop
  endfacet
  facet normal 0 1 0
    outer loop
      vertex -9.69 0 14
      vertex -10.95 0 10.1369
      vertex -13.2931 0 12.48
    endloop
  endfacet
  facet normal 0 1 0
    outer loop
      vertex -9.69 0 14
      vertex -10.95 0 6.82314
      vertex -10.95 0 10.1369
    endloop
  endfacet
  facet normal 0 1 0
    outer loop
      vertex -9.69 0 0
      vertex -16.6069 0 4.48
      vertex -13.2931 0 4.48
    endloop
  endfacet
  facet normal 0 1 -0
    outer loop
      vertex -9.69 0 0
      vertex -10.95 0 6.82314
      vertex -9.69 0 14
    endloop
  endfacet
  facet normal 0 1 0
    outer loop
      vertex -9.69 0 0
      vertex -13.2931 0 4.48
      vertex -10.95 0 6.82314
    endloop
  endfacet
  facet normal 0 1 0
    outer loop
      vertex -16.6069 0 4.48
      vertex -9.69 0 0
      vertex -21.45 0 0
    endloop
  endfacet
  facet normal 0 1 0
    outer loop
      vertex -16.6069 0 4.48
      vertex -21.45 0 0
      vertex -22.45 0 1
    endloop
  endfacet
  facet normal 0 1 -0
    outer loop
      vertex -18.95 0 10.1369
      vertex -21.45 0 14
      vertex -16.6069 0 12.48
    endloop
  endfacet
  facet normal 0 1 0
    outer loop
      vertex -21.45 0 14
      vertex -18.95 0 10.1369
      vertex -22.45 0 13
    endloop
  endfacet
  facet normal 0 1 -0
    outer loop
      vertex -18.95 0 6.82314
      vertex -22.45 0 13
      vertex -18.95 0 10.1369
    endloop
  endfacet
  facet normal 0 1 0
    outer loop
      vertex -18.95 0 6.82314
      vertex -22.45 0 1
      vertex -22.45 0 13
    endloop
  endfacet
  facet normal 0 1 0
    outer loop
      vertex -22.45 0 1
      vertex -18.95 0 6.82314
      vertex -16.6069 0 4.48
    endloop
  endfacet
  facet normal -1 0 0
    outer loop
      vertex -22.45 -14.9 1
      vertex -22.45 0 13
      vertex -22.45 0 1
    endloop
  endfacet
  facet normal -1 -0 0
    outer loop
      vertex -22.45 0 13
      vertex -22.45 -14.9 1
      vertex -22.45 -14.9 13
    endloop
  endfacet
  facet normal -0.707107 0 0.707107
    outer loop
      vertex -22.45 -14.9 13
      vertex -21.45 0 14
      vertex -22.45 0 13
    endloop
  endfacet
  facet normal -0.707107 0 0.707107
    outer loop
      vertex -21.45 0 14
      vertex -22.45 -14.9 13
      vertex -21.45 -14.9 14
    endloop
  endfacet
  facet normal -0.707107 0 -0.707107
    outer loop
      vertex -21.45 -14.9 0
      vertex -22.45 0 1
      vertex -21.45 0 0
    endloop
  endfacet
  facet normal -0.707107 -0 -0.707107
    outer loop
      vertex -22.45 0 1
      vertex -21.45 -14.9 0
      vertex -22.45 -14.9 1
    endloop
  endfacet
  facet normal 0.522103 0.603079 0.603079
    outer loop
      vertex 7.31791 -12.775 8.98
      vertex 2.99437 -9.21574 9.16375
      vertex 2.8865 -9.23867 9.28007
    endloop
  endfacet
  facet normal 0.522103 0.60308 0.603078
    outer loop
      vertex 2.99437 -9.21574 9.16375
      vertex 7.31791 -12.775 8.98
      vertex 3.13454 -9.15333 8.98
    endloop
  endfacet
  facet normal 0.384228 -0.923238 0
    outer loop
      vertex -7.45 -28.55 2.5
      vertex -7.45 -28.55 1
      vertex -7.44 -28.5458 2.5
    endloop
  endfacet
  facet normal 0.384175 -0.92326 0
    outer loop
      vertex -7.44 -28.5458 2.5
      vertex 0 -25.45 8.98
      vertex -7.44 -28.5458 8.98
    endloop
  endfacet
  facet normal 0.384175 -0.92326 4.10908e-07
    outer loop
      vertex 0 -25.45 1
      vertex -7.44 -28.5458 2.5
      vertex -7.45 -28.55 1
    endloop
  endfacet
  facet normal 0.384175 -0.92326 0
    outer loop
      vertex -7.44 -28.5458 2.5
      vertex 0 -25.45 1
      vertex 0 -25.45 8.98
    endloop
  endfacet
  facet normal 0.5 -0.866025 0
    outer loop
      vertex 0 -25.45 1
      vertex 7.31791 -21.225 8.98
      vertex 0 -25.45 8.98
    endloop
  endfacet
  facet normal 0.5 -0.866025 0
    outer loop
      vertex 7.31791 -21.225 8.98
      vertex 0 -25.45 1
      vertex 7.31791 -21.225 1
    endloop
  endfacet
  facet normal 0 -0.707107 -0.707107
    outer loop
      vertex -9.69 -27.55 0
      vertex -7.45 -28.55 1
      vertex -9.69 -28.55 1
    endloop
  endfacet
  facet normal 0 -0.707107 -0.707107
    outer loop
      vertex -7.45 -28.55 1
      vertex -9.69 -27.55 0
      vertex -7.45 -27.55 0
    endloop
  endfacet
  facet normal 1 -0 0
    outer loop
      vertex 7.31791 -21.225 8.98
      vertex 7.31791 -12.775 1
      vertex 7.31791 -12.775 8.98
    endloop
  endfacet
  facet normal 1 0 0
    outer loop
      vertex 7.31791 -12.775 1
      vertex 7.31791 -21.225 8.98
      vertex 7.31791 -21.225 1
    endloop
  endfacet
  facet normal 0 0 1
    outer loop
      vertex -2.99437 -9.21574 9.98
      vertex -7.29402 -12.7888 9.98
      vertex -1.61364 -9.50922 9.98
    endloop
  endfacet
  facet normal 0 0 1
    outer loop
      vertex -4.845 -8.39179 9.98
      vertex -7.29402 -12.7888 9.98
      vertex -2.99437 -9.21574 9.98
    endloop
  endfacet
  facet normal 0 0 1
    outer loop
      vertex -6.48388 -7.20107 9.98
      vertex -7.29402 -12.7888 9.98
      vertex -4.845 -8.39179 9.98
    endloop
  endfacet
  facet normal 0 0 1
    outer loop
      vertex -7.29402 -12.7888 9.98
      vertex -7.44 -14.9 9.98
      vertex -7.29402 -21.2112 9.98
    endloop
  endfacet
  facet normal 0 0 1
    outer loop
      vertex -7.45 -6.12808 9.98
      vertex -7.29402 -12.7888 9.98
      vertex -6.48388 -7.20107 9.98
    endloop
  endfacet
  facet normal 0 0 1
    outer loop
      vertex -7.45 -14.9 9.98
      vertex -7.29402 -12.7888 9.98
      vertex -7.45 -6.12808 9.98
    endloop
  endfacet
  facet normal 0 0 1
    outer loop
      vertex -7.29402 -12.7888 9.98
      vertex -7.45 -14.9 9.98
      vertex -7.44 -14.9 9.98
    endloop
  endfacet
  facet normal 0 0 1
    outer loop
      vertex -7.29402 -21.2112 9.98
      vertex -7.44 -27.5458 9.98
      vertex -0.978818 -24.8573 9.98
    endloop
  endfacet
  facet normal 0 0 1
    outer loop
      vertex -7.44 -27.5458 9.98
      vertex -7.29402 -21.2112 9.98
      vertex -7.44 -14.9 9.98
    endloop
  endfacet
  facet normal 0 0 1
    outer loop
      vertex 2.07863 -9.41038 9.98
      vertex 1.61364 -9.50922 9.98
      vertex 3.27762 -10.4699 9.98
    endloop
  endfacet
  facet normal 0.282267 -0.678353 -0.678353
    outer loop
      vertex -7.45 -27.55 0
      vertex 0 -25.45 1
      vertex -7.45 -28.55 1
    endloop
  endfacet
  facet normal 0.282267 -0.678353 -0.678353
    outer loop
      vertex 0 -25.45 1
      vertex -7.45 -27.55 0
      vertex 0 -24.45 0
    endloop
  endfacet
  facet normal 0.480531 0.543776 -0.688039
    outer loop
      vertex 6.45189 -13.275 0
      vertex 2.8865 -9.23867 0.699929
      vertex 7.31791 -12.775 1
    endloop
  endfacet
  facet normal 0.480531 0.543776 -0.688039
    outer loop
      vertex 2.8865 -9.23867 0.699929
      vertex 6.45189 -13.275 0
      vertex 2.07863 -9.41038 0
    endloop
  endfacet
  facet normal 0 -1 0
    outer loop
      vertex -9.69 -28.55 1
      vertex -8.45 -28.55 2.5
      vertex -9.69 -28.55 3.21538
    endloop
  endfacet
  facet normal 0 -1 0
    outer loop
      vertex -7.45 -28.55 1
      vertex -8.45 -28.55 2.5
      vertex -9.69 -28.55 1
    endloop
  endfacet
  facet normal 0 -1 0
    outer loop
      vertex -8.45 -28.55 2.5
      vertex -7.45 -28.55 1
      vertex -7.45 -28.55 2.5
    endloop
  endfacet
  facet normal 0.480531 0.543776 0.688039
    outer loop
      vertex 2.8865 -9.23867 9.28007
      vertex 3.27762 -10.4699 9.98
      vertex 7.31791 -12.775 8.98
    endloop
  endfacet
  facet normal 0.480531 0.543776 0.688039
    outer loop
      vertex 3.27762 -10.4699 9.98
      vertex 2.8865 -9.23867 9.28007
      vertex 2.07863 -9.41038 9.98
    endloop
  endfacet
  facet normal 0.654525 0.75604 -0
    outer loop
      vertex 7.31791 -12.775 1
      vertex 3.13454 -9.15333 8.98
      vertex 7.31791 -12.775 8.98
    endloop
  endfacet
  facet normal 0.654525 0.75604 0
    outer loop
      vertex 3.13454 -9.15333 8.98
      vertex 7.31791 -12.775 1
      vertex 3.13454 -9.15333 1
    endloop
  endfacet
  facet normal 0.522103 0.603079 -0.603079
    outer loop
      vertex 7.31791 -12.775 1
      vertex 2.99437 -9.21574 0.816252
      vertex 3.13454 -9.15333 1
    endloop
  endfacet
  facet normal 0.522103 0.603079 -0.603079
    outer loop
      vertex 2.99437 -9.21574 0.816252
      vertex 7.31791 -12.775 1
      vertex 2.8865 -9.23867 0.699929
    endloop
  endfacet
  facet normal 0.755929 0 -0.654653
    outer loop
      vertex 7.31791 -12.775 1
      vertex 6.45189 -20.725 0
      vertex 6.45189 -13.275 0
    endloop
  endfacet
  facet normal 0.755929 0 -0.654653
    outer loop
      vertex 6.45189 -20.725 0
      vertex 7.31791 -12.775 1
      vertex 7.31791 -21.225 1
    endloop
  endfacet
  facet normal 0.377965 -0.654654 -0.654654
    outer loop
      vertex 7.31791 -21.225 1
      vertex 0 -25.45 1
      vertex 6.45189 -20.725 0
    endloop
  endfacet
  facet normal 0.282268 -0.678353 0.678353
    outer loop
      vertex -7.44 -28.5458 8.98
      vertex -0.978818 -24.8573 9.98
      vertex -7.44 -27.5458 9.98
    endloop
  endfacet
  facet normal 0.282267 -0.678352 0.678353
    outer loop
      vertex -0.978818 -24.8573 9.98
      vertex -7.44 -28.5458 8.98
      vertex 0 -25.45 8.98
    endloop
  endfacet
  facet normal 0.377965 -0.654654 -0.654654
    outer loop
      vertex 6.45189 -20.725 0
      vertex 0 -25.45 1
      vertex 0 -24.45 0
    endloop
  endfacet
  facet normal 0.999715 -0 0.0238835
    outer loop
      vertex 6.62509 -20.825 37.98
      vertex 7.31791 -12.775 8.98
      vertex 6.62509 -13.175 37.98
    endloop
  endfacet
  facet normal 0.999715 0 0.0238835
    outer loop
      vertex 7.31791 -12.775 8.98
      vertex 6.62509 -20.825 37.98
      vertex 7.31791 -21.225 8.98
    endloop
  endfacet
  facet normal -0.999715 0 0.0238835
    outer loop
      vertex -7.29402 -12.7888 9.98
      vertex -6.62509 -20.825 37.98
      vertex -6.62509 -13.175 37.98
    endloop
  endfacet
  facet normal -0.999715 0 0.0238835
    outer loop
      vertex -6.62509 -20.825 37.98
      vertex -7.29402 -12.7888 9.98
      vertex -7.29402 -21.2112 9.98
    endloop
  endfacet
  facet normal -0.499857 0.865778 0.0238836
    outer loop
      vertex -7.29402 -12.7888 9.98
      vertex -1.42997 -9.54826 15.2394
      vertex -1.61364 -9.50922 9.98
    endloop
  endfacet
  facet normal -0.499857 0.865778 0.0238835
    outer loop
      vertex -1.42997 -9.54826 15.2394
      vertex -7.29402 -12.7888 9.98
      vertex -6.62509 -13.175 37.98
    endloop
  endfacet
  facet normal 0.377965 0.654654 0.654653
    outer loop
      vertex 0.382053 -9.63692 38.0463
      vertex 0 -10.35 38.98
      vertex 5.75907 -13.675 38.98
    endloop
  endfacet
  facet normal 0.377969 0.654652 0.654653
    outer loop
      vertex 0 -10.35 38.98
      vertex 0.382053 -9.63692 38.0463
      vertex 0 -9.63692 38.2669
    endloop
  endfacet
  facet normal 0.377965 0.654654 0.654654
    outer loop
      vertex 0.496956 -9.63692 37.98
      vertex 5.75907 -13.675 38.98
      vertex 6.62509 -13.175 37.98
    endloop
  endfacet
  facet normal 0.377959 0.654649 0.654662
    outer loop
      vertex 5.75907 -13.675 38.98
      vertex 0.496956 -9.63692 37.98
      vertex 0.382053 -9.63692 38.0463
    endloop
  endfacet
  facet normal -0.499857 -0.865778 0.0238835
    outer loop
      vertex -0.978818 -24.8573 9.98
      vertex -6.62509 -20.825 37.98
      vertex -7.29402 -21.2112 9.98
    endloop
  endfacet
  facet normal -0.499859 -0.865777 0.0238831
    outer loop
      vertex -6.62509 -20.825 37.98
      vertex -0.978818 -24.8573 9.98
      vertex 0 -25.45 8.98
    endloop
  endfacet
  facet normal -0.499857 0.865778 0.0238835
    outer loop
      vertex -1.01288 -9.63692 27.1822
      vertex -6.62509 -13.175 37.98
      vertex -0.496956 -9.63692 37.98
    endloop
  endfacet
  facet normal -0.499857 0.865778 0.0238836
    outer loop
      vertex -6.62509 -13.175 37.98
      vertex -1.01288 -9.63692 27.1822
      vertex -1.42997 -9.54826 15.2394
    endloop
  endfacet
  facet normal 0.499857 0.865778 0.0238835
    outer loop
      vertex 6.62509 -13.175 37.98
      vertex 1.01288 -9.63692 27.1822
      vertex 0.496956 -9.63692 37.98
    endloop
  endfacet
  facet normal 0.499857 0.865778 0.0238836
    outer loop
      vertex 1.01288 -9.63692 27.1822
      vertex 6.62509 -13.175 37.98
      vertex 1.42997 -9.54826 15.2394
    endloop
  endfacet
  facet normal 0.755929 -0 0.654653
    outer loop
      vertex 5.75907 -20.325 38.98
      vertex 6.62509 -13.175 37.98
      vertex 5.75907 -13.675 38.98
    endloop
  endfacet
  facet normal 0.755929 0 0.654653
    outer loop
      vertex 6.62509 -13.175 37.98
      vertex 5.75907 -20.325 38.98
      vertex 6.62509 -20.825 37.98
    endloop
  endfacet
  facet normal 0.499857 0.865778 0.0238835
    outer loop
      vertex 7.31791 -12.775 8.98
      vertex 1.42997 -9.54826 15.2394
      vertex 6.62509 -13.175 37.98
    endloop
  endfacet
  facet normal 0.499857 0.865778 0.0238835
    outer loop
      vertex 1.42997 -9.54826 15.2394
      vertex 7.31791 -12.775 8.98
      vertex 3.27762 -10.4699 9.98
    endloop
  endfacet
  facet normal 0.499858 0.865778 0.0238836
    outer loop
      vertex 1.42997 -9.54826 15.2394
      vertex 3.27762 -10.4699 9.98
      vertex 1.61364 -9.50922 9.98
    endloop
  endfacet
  facet normal 0.499857 -0.865778 0.0238836
    outer loop
      vertex 0 -24.65 37.98
      vertex 0 -25.45 8.98
      vertex 6.62509 -20.825 37.98
    endloop
  endfacet
  facet normal 0.499858 -0.865778 0.0238835
    outer loop
      vertex 6.62509 -20.825 37.98
      vertex 0 -25.45 8.98
      vertex 7.31791 -21.225 8.98
    endloop
  endfacet
  facet normal 0.377964 -0.654654 0.654654
    outer loop
      vertex 5.75907 -20.325 38.98
      vertex 0 -24.65 37.98
      vertex 6.62509 -20.825 37.98
    endloop
  endfacet
  facet normal -0.755929 0 0.654653
    outer loop
      vertex -6.62509 -13.175 37.98
      vertex -5.75907 -20.325 38.98
      vertex -5.75907 -13.675 38.98
    endloop
  endfacet
  facet normal -0.755929 0 0.654653
    outer loop
      vertex -5.75907 -20.325 38.98
      vertex -6.62509 -13.175 37.98
      vertex -6.62509 -20.825 37.98
    endloop
  endfacet
  facet normal -0.377964 -0.654654 0.654654
    outer loop
      vertex 0 -23.65 38.98
      vertex -5.75907 -20.325 38.98
      vertex 0 -24.65 37.98
    endloop
  endfacet
  facet normal -0.377969 0.654652 0.654653
    outer loop
      vertex -0.382053 -9.63692 38.0463
      vertex 0 -10.35 38.98
      vertex 0 -9.63692 38.2669
    endloop
  endfacet
  facet normal -0.377965 0.654654 0.654653
    outer loop
      vertex 0 -10.35 38.98
      vertex -0.382053 -9.63692 38.0463
      vertex -5.75907 -13.675 38.98
    endloop
  endfacet
  facet normal -0.377959 0.654649 0.654662
    outer loop
      vertex -0.496956 -9.63692 37.98
      vertex -5.75907 -13.675 38.98
      vertex -0.382053 -9.63692 38.0463
    endloop
  endfacet
  facet normal -0.377965 0.654654 0.654654
    outer loop
      vertex -5.75907 -13.675 38.98
      vertex -0.496956 -9.63692 37.98
      vertex -6.62509 -13.175 37.98
    endloop
  endfacet
  facet normal -0.377964 -0.654654 0.654654
    outer loop
      vertex -5.75907 -20.325 38.98
      vertex -6.62509 -20.825 37.98
      vertex 0 -24.65 37.98
    endloop
  endfacet
  facet normal -0.499857 -0.865778 0.0238836
    outer loop
      vertex 0 -24.65 37.98
      vertex -6.62509 -20.825 37.98
      vertex 0 -25.45 8.98
    endloop
  endfacet
  facet normal 0.377964 -0.654654 0.654654
    outer loop
      vertex 0 -23.65 38.98
      vertex 0 -24.65 37.98
      vertex 5.75907 -20.325 38.98
    endloop
  endfacet
  facet normal 0 0 1
    outer loop
      vertex 5.75907 -13.675 38.98
      vertex 4.1 -14.6329 38.98
      vertex 5.75907 -20.325 38.98
    endloop
  endfacet
  facet normal 0 0 1
    outer loop
      vertex 0 -10.35 38.98
      vertex 4.1 -14.6329 38.98
      vertex 5.75907 -13.675 38.98
    endloop
  endfacet
  facet normal 0 0 1
    outer loop
      vertex 0 -10.35 38.98
      vertex 0 -12.2657 38.98
      vertex 4.1 -14.6329 38.98
    endloop
  endfacet
  facet normal 0 0 1
    outer loop
      vertex 0 -10.35 38.98
      vertex -4.1 -14.6329 38.98
      vertex 0 -12.2657 38.98
    endloop
  endfacet
  facet normal 0 0 1
    outer loop
      vertex -4.1 -14.6329 38.98
      vertex -5.75907 -13.675 38.98
      vertex -4.1 -19.3671 38.98
    endloop
  endfacet
  facet normal -0 0 1
    outer loop
      vertex -5.75907 -13.675 38.98
      vertex -4.1 -14.6329 38.98
      vertex 0 -10.35 38.98
    endloop
  endfacet
  facet normal -0 0 1
    outer loop
      vertex 4.1 -19.3671 38.98
      vertex 5.75907 -20.325 38.98
      vertex 4.1 -14.6329 38.98
    endloop
  endfacet
  facet normal 0 0 1
    outer loop
      vertex 0 -21.7343 38.98
      vertex 5.75907 -20.325 38.98
      vertex 4.1 -19.3671 38.98
    endloop
  endfacet
  facet normal -0 0 1
    outer loop
      vertex 0 -21.7343 38.98
      vertex 0 -23.65 38.98
      vertex 5.75907 -20.325 38.98
    endloop
  endfacet
  facet normal 0 0 1
    outer loop
      vertex -4.1 -19.3671 38.98
      vertex 0 -23.65 38.98
      vertex 0 -21.7343 38.98
    endloop
  endfacet
  facet normal 0 0 1
    outer loop
      vertex -4.1 -19.3671 38.98
      vertex -5.75907 -20.325 38.98
      vertex 0 -23.65 38.98
    endloop
  endfacet
  facet normal 0 0 1
    outer loop
      vertex -5.75907 -20.325 38.98
      vertex -4.1 -19.3671 38.98
      vertex -5.75907 -13.675 38.98
    endloop
  endfacet
  facet normal -0.608761 -0.793353 0
    outer loop
      vertex 3.725 6.45189 0
      vertex 5.26795 5.26795 61.96
      vertex 3.725 6.45189 61.96
    endloop
  endfacet
  facet normal -0.608761 -0.793353 -0
    outer loop
      vertex 5.26795 5.26795 61.96
      vertex 3.725 6.45189 0
      vertex 5.26795 5.26795 0
    endloop
  endfacet
  facet normal 0.92388 -0.382683 0
    outer loop
      vertex -7.19615 1.9282 61.96
      vertex -6.45189 3.725 0
      vertex -6.45189 3.725 61.96
    endloop
  endfacet
  facet normal 0.92388 -0.382683 0
    outer loop
      vertex -6.45189 3.725 0
      vertex -7.19615 1.9282 61.96
      vertex -7.19615 1.9282 0
    endloop
  endfacet
  facet normal -0.991445 0.130526 0
    outer loop
      vertex 7.19615 -1.9282 0
      vertex 7.45 0 61.96
      vertex 7.45 0 0
    endloop
  endfacet
  facet normal -0.991445 0.130526 0
    outer loop
      vertex 7.45 0 61.96
      vertex 7.19615 -1.9282 0
      vertex 7.19615 -1.9282 61.96
    endloop
  endfacet
  facet normal 0.382683 0.92388 -0
    outer loop
      vertex -1.9282 -7.19615 0
      vertex -3.725 -6.45189 61.96
      vertex -1.9282 -7.19615 61.96
    endloop
  endfacet
  facet normal 0.382683 0.92388 0
    outer loop
      vertex -3.725 -6.45189 61.96
      vertex -1.9282 -7.19615 0
      vertex -3.725 -6.45189 0
    endloop
  endfacet
  facet normal -0.793353 -0.608761 0
    outer loop
      vertex 6.45189 3.725 0
      vertex 5.26795 5.26795 61.96
      vertex 5.26795 5.26795 0
    endloop
  endfacet
  facet normal -0.793353 -0.608761 0
    outer loop
      vertex 5.26795 5.26795 61.96
      vertex 6.45189 3.725 0
      vertex 6.45189 3.725 61.96
    endloop
  endfacet
  facet normal -0.92388 -0.382683 0
    outer loop
      vertex 7.19615 1.9282 0
      vertex 6.45189 3.725 61.96
      vertex 6.45189 3.725 0
    endloop
  endfacet
  facet normal -0.92388 -0.382683 0
    outer loop
      vertex 6.45189 3.725 61.96
      vertex 7.19615 1.9282 0
      vertex 7.19615 1.9282 61.96
    endloop
  endfacet
  facet normal 0.382683 -0.92388 0
    outer loop
      vertex -3.725 6.45189 0
      vertex -1.9282 7.19615 61.96
      vertex -3.725 6.45189 61.96
    endloop
  endfacet
  facet normal 0.382683 -0.92388 0
    outer loop
      vertex -1.9282 7.19615 61.96
      vertex -3.725 6.45189 0
      vertex -1.9282 7.19615 0
    endloop
  endfacet
  facet normal 0.608761 -0.793353 0
    outer loop
      vertex -5.26795 5.26795 0
      vertex -3.725 6.45189 61.96
      vertex -5.26795 5.26795 61.96
    endloop
  endfacet
  facet normal 0.608761 -0.793353 0
    outer loop
      vertex -3.725 6.45189 61.96
      vertex -5.26795 5.26795 0
      vertex -3.725 6.45189 0
    endloop
  endfacet
  facet normal -0.608761 0.793353 0
    outer loop
      vertex 5.26795 -5.26795 0
      vertex 4.5252 -5.83787 61.96
      vertex 5.26795 -5.26795 61.96
    endloop
  endfacet
  facet normal -0.608761 0.793353 0
    outer loop
      vertex 4.5252 -5.83787 61.96
      vertex 5.26795 -5.26795 0
      vertex 4.5252 -5.83787 0
    endloop
  endfacet
  facet normal 0.92388 0.382683 0
    outer loop
      vertex -6.45189 -3.725 61.96
      vertex -7.19615 -1.9282 0
      vertex -7.19615 -1.9282 61.96
    endloop
  endfacet
  facet normal 0.92388 0.382683 0
    outer loop
      vertex -7.19615 -1.9282 0
      vertex -6.45189 -3.725 61.96
      vertex -6.45189 -3.725 0
    endloop
  endfacet
  facet normal 0.608761 0.793353 -0
    outer loop
      vertex -3.725 -6.45189 0
      vertex -5.26795 -5.26795 61.96
      vertex -3.725 -6.45189 61.96
    endloop
  endfacet
  facet normal 0.608761 0.793353 0
    outer loop
      vertex -5.26795 -5.26795 61.96
      vertex -3.725 -6.45189 0
      vertex -5.26795 -5.26795 0
    endloop
  endfacet
  facet normal -0.130526 -0.991445 0
    outer loop
      vertex 0 7.45 0
      vertex 1.9282 7.19615 61.96
      vertex 0 7.45 61.96
    endloop
  endfacet
  facet normal -0.130526 -0.991445 -0
    outer loop
      vertex 1.9282 7.19615 61.96
      vertex 0 7.45 0
      vertex 1.9282 7.19615 0
    endloop
  endfacet
  facet normal 0.991445 -0.130526 0
    outer loop
      vertex -7.45 0 61.96
      vertex -7.19615 1.9282 0
      vertex -7.19615 1.9282 61.96
    endloop
  endfacet
  facet normal 0.991445 -0.130526 0
    outer loop
      vertex -7.19615 1.9282 0
      vertex -7.45 0 61.96
      vertex -7.45 0 0
    endloop
  endfacet
  facet normal 0.793353 -0.608761 0
    outer loop
      vertex -6.45189 3.725 61.96
      vertex -5.26795 5.26795 0
      vertex -5.26795 5.26795 61.96
    endloop
  endfacet
  facet normal 0.793353 -0.608761 0
    outer loop
      vertex -5.26795 5.26795 0
      vertex -6.45189 3.725 61.96
      vertex -6.45189 3.725 0
    endloop
  endfacet
  facet normal 0.130526 -0.991445 0
    outer loop
      vertex -1.9282 7.19615 0
      vertex 0 7.45 61.96
      vertex -1.9282 7.19615 61.96
    endloop
  endfacet
  facet normal 0.130526 -0.991445 0
    outer loop
      vertex 0 7.45 61.96
      vertex -1.9282 7.19615 0
      vertex 0 7.45 0
    endloop
  endfacet
  facet normal -0.991445 -0.130526 0
    outer loop
      vertex 7.45 0 0
      vertex 7.19615 1.9282 61.96
      vertex 7.19615 1.9282 0
    endloop
  endfacet
  facet normal -0.991445 -0.130526 0
    outer loop
      vertex 7.19615 1.9282 61.96
      vertex 7.45 0 0
      vertex 7.45 0 61.96
    endloop
  endfacet
  facet normal -0.130526 0.991445 0
    outer loop
      vertex 1.9282 -7.19615 0
      vertex 0 -7.45 61.96
      vertex 1.9282 -7.19615 61.96
    endloop
  endfacet
  facet normal -0.130526 0.991445 0
    outer loop
      vertex 0 -7.45 61.96
      vertex 1.9282 -7.19615 0
      vertex 0 -7.45 0
    endloop
  endfacet
  facet normal -0.793353 0.608761 0
    outer loop
      vertex 5.26795 -5.26795 0
      vertex 6.45189 -3.725 61.96
      vertex 6.45189 -3.725 0
    endloop
  endfacet
  facet normal -0.793353 0.608761 0
    outer loop
      vertex 6.45189 -3.725 61.96
      vertex 5.26795 -5.26795 0
      vertex 5.26795 -5.26795 61.96
    endloop
  endfacet
  facet normal -0.92388 0.382683 0
    outer loop
      vertex 6.45189 -3.725 0
      vertex 7.19615 -1.9282 61.96
      vertex 7.19615 -1.9282 0
    endloop
  endfacet
  facet normal -0.92388 0.382683 0
    outer loop
      vertex 7.19615 -1.9282 61.96
      vertex 6.45189 -3.725 0
      vertex 6.45189 -3.725 61.96
    endloop
  endfacet
  facet normal -0.382683 0.92388 0
    outer loop
      vertex 2.79315 -6.83787 0
      vertex 1.9282 -7.19615 61.96
      vertex 2.79315 -6.83787 61.96
    endloop
  endfacet
  facet normal -0.382683 0.92388 0
    outer loop
      vertex 1.9282 -7.19615 61.96
      vertex 2.79315 -6.83787 0
      vertex 1.9282 -7.19615 0
    endloop
  endfacet
  facet normal 0.130526 0.991445 -0
    outer loop
      vertex 0 -7.45 0
      vertex -1.9282 -7.19615 61.96
      vertex 0 -7.45 61.96
    endloop
  endfacet
  facet normal 0.130526 0.991445 0
    outer loop
      vertex -1.9282 -7.19615 61.96
      vertex 0 -7.45 0
      vertex -1.9282 -7.19615 0
    endloop
  endfacet
  facet normal 0.793353 0.608761 0
    outer loop
      vertex -5.26795 -5.26795 61.96
      vertex -6.45189 -3.725 0
      vertex -6.45189 -3.725 61.96
    endloop
  endfacet
  facet normal 0.793353 0.608761 0
    outer loop
      vertex -6.45189 -3.725 0
      vertex -5.26795 -5.26795 61.96
      vertex -5.26795 -5.26795 0
    endloop
  endfacet
  facet normal 0.991445 0.130526 0
    outer loop
      vertex -7.19615 -1.9282 61.96
      vertex -7.45 0 0
      vertex -7.45 0 61.96
    endloop
  endfacet
  facet normal 0.991445 0.130526 0
    outer loop
      vertex -7.45 0 0
      vertex -7.19615 -1.9282 61.96
      vertex -7.19615 -1.9282 0
    endloop
  endfacet
  facet normal -0.382683 -0.92388 0
    outer loop
      vertex 1.9282 7.19615 0
      vertex 3.725 6.45189 61.96
      vertex 1.9282 7.19615 61.96
    endloop
  endfacet
  facet normal -0.382683 -0.92388 -0
    outer loop
      vertex 3.725 6.45189 61.96
      vertex 1.9282 7.19615 0
      vertex 3.725 6.45189 0
    endloop
  endfacet
  facet normal -0.866025 -0.5 0
    outer loop
      vertex 5.65847 -7.80076 0
      vertex 4.5252 -5.83787 61.96
      vertex 4.5252 -5.83787 0
    endloop
  endfacet
  facet normal -0.866025 -0.5 0
    outer loop
      vertex 4.5252 -5.83787 61.96
      vertex 5.65847 -7.80076 0
      vertex 5.65847 -7.80076 61.96
    endloop
  endfacet
  facet normal 0.866025 0.5 0
    outer loop
      vertex 3.92642 -8.80076 61.96
      vertex 2.79315 -6.83787 0
      vertex 2.79315 -6.83787 61.96
    endloop
  endfacet
  facet normal 0.866025 0.5 0
    outer loop
      vertex 2.79315 -6.83787 0
      vertex 3.92642 -8.80076 61.96
      vertex 3.92642 -8.80076 0
    endloop
  endfacet
  facet normal -0.707107 0 -0.707107
    outer loop
      vertex -11.05 -14.9 10.2369
      vertex -10.95 0 10.1369
      vertex -10.95 -14.9 10.1369
    endloop
  endfacet
  facet normal -0.707107 0 -0.707107
    outer loop
      vertex -10.95 0 10.1369
      vertex -11.05 -14.9 10.2369
      vertex -13.2931 0 12.48
    endloop
  endfacet
  facet normal -0.707107 -0 -0.707107
    outer loop
      vertex -13.2931 0 12.48
      vertex -11.05 -14.9 10.2369
      vertex -13.2931 -14.9 12.48
    endloop
  endfacet
  facet normal 0 0 -1
    outer loop
      vertex -16.6069 -14.9 12.48
      vertex -13.2931 0 12.48
      vertex -13.2931 -14.9 12.48
    endloop
  endfacet
  facet normal -0 0 -1
    outer loop
      vertex -13.2931 0 12.48
      vertex -16.6069 -14.9 12.48
      vertex -16.6069 0 12.48
    endloop
  endfacet
  facet normal 1 -0 0
    outer loop
      vertex -18.95 -14.9 10.1369
      vertex -18.95 0 6.82314
      vertex -18.95 0 10.1369
    endloop
  endfacet
  facet normal 1 0 0
    outer loop
      vertex -18.95 0 6.82314
      vertex -18.95 -14.9 10.1369
      vertex -18.95 -14.9 6.82314
    endloop
  endfacet
  facet normal 0.707106 0 -0.707107
    outer loop
      vertex -18.95 -14.9 10.1369
      vertex -16.6069 0 12.48
      vertex -16.6069 -14.9 12.48
    endloop
  endfacet
  facet normal 0.707106 0 -0.707107
    outer loop
      vertex -16.6069 0 12.48
      vertex -18.95 -14.9 10.1369
      vertex -18.95 0 10.1369
    endloop
  endfacet
  facet normal 0.707106 0 0.707107
    outer loop
      vertex -18.95 0 6.82314
      vertex -16.6069 -14.9 4.48
      vertex -16.6069 0 4.48
    endloop
  endfacet
  facet normal 0.707106 0 0.707107
    outer loop
      vertex -16.6069 -14.9 4.48
      vertex -18.95 0 6.82314
      vertex -18.95 -14.9 6.82314
    endloop
  endfacet
  facet normal -0 0 1
    outer loop
      vertex -16.6069 0 4.48
      vertex -13.2931 -14.9 4.48
      vertex -13.2931 0 4.48
    endloop
  endfacet
  facet normal 0 0 1
    outer loop
      vertex -13.2931 -14.9 4.48
      vertex -16.6069 0 4.48
      vertex -16.6069 -14.9 4.48
    endloop
  endfacet
  facet normal -0.707107 0 0.707107
    outer loop
      vertex -13.2931 -14.9 4.48
      vertex -10.95 0 6.82314
      vertex -13.2931 0 4.48
    endloop
  endfacet
  facet normal -0.707107 0 0.707107
    outer loop
      vertex -11.05 -14.9 6.72315
      vertex -10.95 0 6.82314
      vertex -13.2931 -14.9 4.48
    endloop
  endfacet
  facet normal -0.707107 0 0.707107
    outer loop
      vertex -10.95 0 6.82314
      vertex -11.05 -14.9 6.72315
      vertex -10.95 -14.9 6.82314
    endloop
  endfacet
  facet normal -1 0 0
    outer loop
      vertex -10.95 -14.9 6.82314
      vertex -10.95 0 10.1369
      vertex -10.95 0 6.82314
    endloop
  endfacet
  facet normal -1 -0 0
    outer loop
      vertex -10.95 0 10.1369
      vertex -10.95 -14.9 6.82314
      vertex -10.95 -14.9 10.1369
    endloop
  endfacet
  facet normal -0.965926 -0.258819 -0
    outer loop
      vertex 2.5 -17 33.98
      vertex 2.16506 -15.75 29.96
      vertex 2.5 -17 29.2676
    endloop
  endfacet
  facet normal -0.965926 -0.258819 0
    outer loop
      vertex 2.16506 -15.75 29.96
      vertex 2.5 -17 33.98
      vertex 2.16506 -15.75 33.98
    endloop
  endfacet
  facet normal 0.965926 -0.258819 0
    outer loop
      vertex -2.5 -17 33.98
      vertex -2.16506 -15.75 29.96
      vertex -2.16506 -15.75 33.98
    endloop
  endfacet
  facet normal 0.965926 -0.258819 0
    outer loop
      vertex -2.16506 -15.75 29.96
      vertex -2.5 -17 33.98
      vertex -2.5 -17 29.2676
    endloop
  endfacet
  facet normal 0.258819 -0.965926 0
    outer loop
      vertex -1.25 -14.8349 33.98
      vertex 0 -14.5 29.96
      vertex 0 -14.5 33.98
    endloop
  endfacet
  facet normal 0.258819 -0.965926 0
    outer loop
      vertex 0 -14.5 29.96
      vertex -1.25 -14.8349 33.98
      vertex -1.25 -14.8349 29.2676
    endloop
  endfacet
  facet normal -0.707107 -0.707106 0
    outer loop
      vertex 2.16506 -15.75 29.96
      vertex 1.25 -14.8349 33.98
      vertex 1.25 -14.8349 29.2676
    endloop
  endfacet
  facet normal -0.707107 -0.707106 0
    outer loop
      vertex 1.25 -14.8349 33.98
      vertex 2.16506 -15.75 29.96
      vertex 2.16506 -15.75 33.98
    endloop
  endfacet
  facet normal 0.707107 -0.707107 0
    outer loop
      vertex -2.16506 -15.75 29.96
      vertex -1.25 -14.8349 33.98
      vertex -2.16506 -15.75 33.98
    endloop
  endfacet
  facet normal 0.707107 -0.707107 0
    outer loop
      vertex -1.25 -14.8349 33.98
      vertex -2.16506 -15.75 29.96
      vertex -1.25 -14.8349 29.2676
    endloop
  endfacet
  facet normal -0.25882 0.965926 0
    outer loop
      vertex 1.25 -19.1651 33.98
      vertex 0 -19.5 29.96
      vertex 0 -19.5 33.98
    endloop
  endfacet
  facet normal -0.25882 0.965926 0
    outer loop
      vertex 0 -19.5 29.96
      vertex 1.25 -19.1651 33.98
      vertex 1.25 -19.1651 29.2676
    endloop
  endfacet
  facet normal 0.25882 0.965926 -0
    outer loop
      vertex 0 -19.5 29.96
      vertex -1.25 -19.1651 33.98
      vertex 0 -19.5 33.98
    endloop
  endfacet
  facet normal 0.25882 0.965926 0
    outer loop
      vertex -1.25 -19.1651 33.98
      vertex 0 -19.5 29.96
      vertex -1.25 -19.1651 29.2676
    endloop
  endfacet
  facet normal 0.965926 0.258819 -0
    outer loop
      vertex -2.16506 -18.25 29.96
      vertex -2.5 -17 33.98
      vertex -2.16506 -18.25 33.98
    endloop
  endfacet
  facet normal 0.965926 0.258819 0
    outer loop
      vertex -2.5 -17 33.98
      vertex -2.16506 -18.25 29.96
      vertex -2.5 -17 29.2676
    endloop
  endfacet
  facet normal 0.707106 0.707107 0
    outer loop
      vertex -1.25 -19.1651 33.98
      vertex -2.16506 -18.25 29.96
      vertex -2.16506 -18.25 33.98
    endloop
  endfacet
  facet normal 0.707106 0.707107 0
    outer loop
      vertex -2.16506 -18.25 29.96
      vertex -1.25 -19.1651 33.98
      vertex -1.25 -19.1651 29.2676
    endloop
  endfacet
  facet normal -0.258819 -0.965926 0
    outer loop
      vertex 0 -14.5 29.96
      vertex 1.25 -14.8349 33.98
      vertex 0 -14.5 33.98
    endloop
  endfacet
  facet normal -0.258819 -0.965926 -0
    outer loop
      vertex 1.25 -14.8349 33.98
      vertex 0 -14.5 29.96
      vertex 1.25 -14.8349 29.2676
    endloop
  endfacet
  facet normal -0.707106 0.707107 0
    outer loop
      vertex 2.16506 -18.25 29.96
      vertex 1.25 -19.1651 33.98
      vertex 2.16506 -18.25 33.98
    endloop
  endfacet
  facet normal -0.707106 0.707107 0
    outer loop
      vertex 1.25 -19.1651 33.98
      vertex 2.16506 -18.25 29.96
      vertex 1.25 -19.1651 29.2676
    endloop
  endfacet
  facet normal -0.965926 0.258819 0
    outer loop
      vertex 2.16506 -18.25 29.96
      vertex 2.5 -17 33.98
      vertex 2.5 -17 29.2676
    endloop
  endfacet
  facet normal -0.965926 0.258819 0
    outer loop
      vertex 2.5 -17 33.98
      vertex 2.16506 -18.25 29.96
      vertex 2.16506 -18.25 33.98
    endloop
  endfacet
  facet normal -0.5 -0.866025 0
    outer loop
      vertex 0 -12.2657 33.98
      vertex 4.1 -14.6329 38.98
      vertex 0 -12.2657 38.98
    endloop
  endfacet
  facet normal -0.5 -0.866025 -0
    outer loop
      vertex 4.1 -14.6329 38.98
      vertex 0 -12.2657 33.98
      vertex 4.1 -14.6329 33.98
    endloop
  endfacet
  facet normal 1 -0 0
    outer loop
      vertex -4.1 -19.3671 38.98
      vertex -4.1 -14.6329 33.98
      vertex -4.1 -14.6329 38.98
    endloop
  endfacet
  facet normal 1 0 0
    outer loop
      vertex -4.1 -14.6329 33.98
      vertex -4.1 -19.3671 38.98
      vertex -4.1 -19.3671 33.98
    endloop
  endfacet
  facet normal 0.5 -0.866025 0
    outer loop
      vertex -4.1 -14.6329 33.98
      vertex 0 -12.2657 38.98
      vertex -4.1 -14.6329 38.98
    endloop
  endfacet
  facet normal 0.5 -0.866025 0
    outer loop
      vertex 0 -12.2657 38.98
      vertex -4.1 -14.6329 33.98
      vertex 0 -12.2657 33.98
    endloop
  endfacet
  facet normal 0 0 1
    outer loop
      vertex 4.1 -14.6329 33.98
      vertex 2.5 -17 33.98
      vertex 4.1 -19.3671 33.98
    endloop
  endfacet
  facet normal 0 0 1
    outer loop
      vertex 4.1 -14.6329 33.98
      vertex 2.16506 -15.75 33.98
      vertex 2.5 -17 33.98
    endloop
  endfacet
  facet normal 0 0 1
    outer loop
      vertex 4.1 -14.6329 33.98
      vertex 1.25 -14.8349 33.98
      vertex 2.16506 -15.75 33.98
    endloop
  endfacet
  facet normal 0 0 1
    outer loop
      vertex 0 -12.2657 33.98
      vertex 1.25 -14.8349 33.98
      vertex 4.1 -14.6329 33.98
    endloop
  endfacet
  facet normal 0 0 1
    outer loop
      vertex 0 -12.2657 33.98
      vertex 0 -14.5 33.98
      vertex 1.25 -14.8349 33.98
    endloop
  endfacet
  facet normal 0 0 1
    outer loop
      vertex 0 -12.2657 33.98
      vertex -1.25 -14.8349 33.98
      vertex 0 -14.5 33.98
    endloop
  endfacet
  facet normal -0 0 1
    outer loop
      vertex -4.1 -14.6329 33.98
      vertex -1.25 -14.8349 33.98
      vertex 0 -12.2657 33.98
    endloop
  endfacet
  facet normal 0 0 1
    outer loop
      vertex -2.16506 -15.75 33.98
      vertex -4.1 -14.6329 33.98
      vertex -2.5 -17 33.98
    endloop
  endfacet
  facet normal 0 0 1
    outer loop
      vertex -1.25 -14.8349 33.98
      vertex -4.1 -14.6329 33.98
      vertex -2.16506 -15.75 33.98
    endloop
  endfacet
  facet normal -0 0 1
    outer loop
      vertex 2.16506 -18.25 33.98
      vertex 4.1 -19.3671 33.98
      vertex 2.5 -17 33.98
    endloop
  endfacet
  facet normal -0 0 1
    outer loop
      vertex 1.25 -19.1651 33.98
      vertex 4.1 -19.3671 33.98
      vertex 2.16506 -18.25 33.98
    endloop
  endfacet
  facet normal 0 0 1
    outer loop
      vertex 0 -21.7343 33.98
      vertex 1.25 -19.1651 33.98
      vertex 0 -19.5 33.98
    endloop
  endfacet
  facet normal 0 0 1
    outer loop
      vertex 1.25 -19.1651 33.98
      vertex 0 -21.7343 33.98
      vertex 4.1 -19.3671 33.98
    endloop
  endfacet
  facet normal 0 0 1
    outer loop
      vertex -1.25 -19.1651 33.98
      vertex 0 -21.7343 33.98
      vertex 0 -19.5 33.98
    endloop
  endfacet
  facet normal 0 0 1
    outer loop
      vertex -4.1 -19.3671 33.98
      vertex -1.25 -19.1651 33.98
      vertex -2.16506 -18.25 33.98
    endloop
  endfacet
  facet normal 0 0 1
    outer loop
      vertex -4.1 -19.3671 33.98
      vertex -2.5 -17 33.98
      vertex -4.1 -14.6329 33.98
    endloop
  endfacet
  facet normal 0 0 1
    outer loop
      vertex -1.25 -19.1651 33.98
      vertex -4.1 -19.3671 33.98
      vertex 0 -21.7343 33.98
    endloop
  endfacet
  facet normal 0 0 1
    outer loop
      vertex -2.5 -17 33.98
      vertex -4.1 -19.3671 33.98
      vertex -2.16506 -18.25 33.98
    endloop
  endfacet
  facet normal -1 0 0
    outer loop
      vertex 4.1 -19.3671 33.98
      vertex 4.1 -14.6329 38.98
      vertex 4.1 -14.6329 33.98
    endloop
  endfacet
  facet normal -1 -0 0
    outer loop
      vertex 4.1 -14.6329 38.98
      vertex 4.1 -19.3671 33.98
      vertex 4.1 -19.3671 38.98
    endloop
  endfacet
  facet normal 0.5 0.866025 -0
    outer loop
      vertex 0 -21.7343 33.98
      vertex -4.1 -19.3671 38.98
      vertex 0 -21.7343 38.98
    endloop
  endfacet
  facet normal 0.5 0.866025 0
    outer loop
      vertex -4.1 -19.3671 38.98
      vertex 0 -21.7343 33.98
      vertex -4.1 -19.3671 33.98
    endloop
  endfacet
  facet normal -0.5 0.866025 0
    outer loop
      vertex 4.1 -19.3671 33.98
      vertex 0 -21.7343 38.98
      vertex 4.1 -19.3671 38.98
    endloop
  endfacet
  facet normal -0.5 0.866025 0
    outer loop
      vertex 0 -21.7343 38.98
      vertex 4.1 -19.3671 33.98
      vertex 0 -21.7343 33.98
    endloop
  endfacet
  facet normal -1 0 0
    outer loop
      vertex 4.1 -19.3671 0
      vertex 4.1 -14.6329 25.96
      vertex 4.1 -14.6329 0
    endloop
  endfacet
  facet normal -1 -0 0
    outer loop
      vertex 4.1 -14.6329 25.96
      vertex 4.1 -19.3671 0
      vertex 4.1 -19.3671 25.96
    endloop
  endfacet
  facet normal -0.5 -0.866025 0
    outer loop
      vertex 0 -12.2657 0
      vertex 4.1 -14.6329 25.96
      vertex 0 -12.2657 25.96
    endloop
  endfacet
  facet normal -0.5 -0.866025 -0
    outer loop
      vertex 4.1 -14.6329 25.96
      vertex 0 -12.2657 0
      vertex 4.1 -14.6329 0
    endloop
  endfacet
  facet normal 1 -0 0
    outer loop
      vertex -4.1 -19.3671 25.96
      vertex -4.1 -14.6329 0
      vertex -4.1 -14.6329 25.96
    endloop
  endfacet
  facet normal 1 0 0
    outer loop
      vertex -4.1 -14.6329 0
      vertex -4.1 -19.3671 25.96
      vertex -4.1 -19.3671 0
    endloop
  endfacet
  facet normal 0.450104 0.779603 -0.435461
    outer loop
      vertex 0 -19.5 29.96
      vertex 0 -21.7343 25.96
      vertex -4.1 -19.3671 25.96
    endloop
  endfacet
  facet normal -0.5 0.866025 0
    outer loop
      vertex 4.1 -19.3671 0
      vertex 0 -21.7343 25.96
      vertex 4.1 -19.3671 25.96
    endloop
  endfacet
  facet normal -0.5 0.866025 0
    outer loop
      vertex 0 -21.7343 25.96
      vertex 4.1 -19.3671 0
      vertex 0 -21.7343 0
    endloop
  endfacet
  facet normal -0.450104 -0.779603 -0.435461
    outer loop
      vertex 0 -12.2657 25.96
      vertex 4.1 -14.6329 25.96
      vertex 0 -14.5 29.96
    endloop
  endfacet
  facet normal 0.450104 0.779602 -0.435462
    outer loop
      vertex 0 -19.5 29.96
      vertex -4.1 -19.3671 25.96
      vertex -1.25 -19.1651 29.2676
    endloop
  endfacet
  facet normal 0.450104 0.779603 -0.435461
    outer loop
      vertex -2.16506 -18.25 29.96
      vertex -1.25 -19.1651 29.2676
      vertex -4.1 -19.3671 25.96
    endloop
  endfacet
  facet normal 0.450104 -0.779603 -0.435461
    outer loop
      vertex 0 -12.2657 25.96
      vertex 0 -14.5 29.96
      vertex -4.1 -14.6329 25.96
    endloop
  endfacet
  facet normal 0.5 -0.866025 0
    outer loop
      vertex -4.1 -14.6329 0
      vertex 0 -12.2657 25.96
      vertex -4.1 -14.6329 25.96
    endloop
  endfacet
  facet normal 0.5 -0.866025 0
    outer loop
      vertex 0 -12.2657 25.96
      vertex -4.1 -14.6329 0
      vertex 0 -12.2657 0
    endloop
  endfacet
  facet normal 0.5 0.866025 -0
    outer loop
      vertex 0 -21.7343 0
      vertex -4.1 -19.3671 25.96
      vertex 0 -21.7343 25.96
    endloop
  endfacet
  facet normal 0.5 0.866025 0
    outer loop
      vertex -4.1 -19.3671 25.96
      vertex 0 -21.7343 0
      vertex -4.1 -19.3671 0
    endloop
  endfacet
  facet normal -0.900208 2.53359e-07 -0.435461
    outer loop
      vertex 4.1 -14.6329 25.96
      vertex 2.5 -17 29.2676
      vertex 2.16506 -15.75 29.96
    endloop
  endfacet
  facet normal -0.900207 0 -0.435461
    outer loop
      vertex 4.1 -19.3671 25.96
      vertex 2.5 -17 29.2676
      vertex 4.1 -14.6329 25.96
    endloop
  endfacet
  facet normal -0.900208 -2.53359e-07 -0.435461
    outer loop
      vertex 2.5 -17 29.2676
      vertex 4.1 -19.3671 25.96
      vertex 2.16506 -18.25 29.96
    endloop
  endfacet
  facet normal -0.450104 0.779603 -0.435461
    outer loop
      vertex 0 -19.5 29.96
      vertex 4.1 -19.3671 25.96
      vertex 0 -21.7343 25.96
    endloop
  endfacet
  facet normal 0.900208 2.53359e-07 -0.435461
    outer loop
      vertex -2.5 -17 29.2676
      vertex -4.1 -14.6329 25.96
      vertex -2.16506 -15.75 29.96
    endloop
  endfacet
  facet normal 0.900208 -2.53359e-07 -0.435461
    outer loop
      vertex -4.1 -19.3671 25.96
      vertex -2.5 -17 29.2676
      vertex -2.16506 -18.25 29.96
    endloop
  endfacet
  facet normal 0.900207 0 -0.435461
    outer loop
      vertex -2.5 -17 29.2676
      vertex -4.1 -19.3671 25.96
      vertex -4.1 -14.6329 25.96
    endloop
  endfacet
  facet normal -0.450104 0.779602 -0.435462
    outer loop
      vertex 0 -19.5 29.96
      vertex 1.25 -19.1651 29.2676
      vertex 4.1 -19.3671 25.96
    endloop
  endfacet
  facet normal -0.450104 0.779603 -0.435461
    outer loop
      vertex 2.16506 -18.25 29.96
      vertex 4.1 -19.3671 25.96
      vertex 1.25 -19.1651 29.2676
    endloop
  endfacet
  facet normal -0.450104 -0.779603 -0.435461
    outer loop
      vertex 0 -14.5 29.96
      vertex 4.1 -14.6329 25.96
      vertex 1.25 -14.8349 29.2676
    endloop
  endfacet
  facet normal -0.450104 -0.779602 -0.435461
    outer loop
      vertex 2.16506 -15.75 29.96
      vertex 1.25 -14.8349 29.2676
      vertex 4.1 -14.6329 25.96
    endloop
  endfacet
  facet normal 0.450104 -0.779603 -0.435461
    outer loop
      vertex -2.16506 -15.75 29.96
      vertex -4.1 -14.6329 25.96
      vertex -1.25 -14.8349 29.2676
    endloop
  endfacet
  facet normal 0.450104 -0.779602 -0.435462
    outer loop
      vertex 0 -14.5 29.96
      vertex -1.25 -14.8349 29.2676
      vertex -4.1 -14.6329 25.96
    endloop
  endfacet
  facet normal -0 0 1
    outer loop
      vertex -8.45 -14.9 2.5
      vertex -7.44 -28.5458 2.5
      vertex -7.44 -14.9 2.5
    endloop
  endfacet
  facet normal 0 0 1
    outer loop
      vertex -8.45 -28.55 2.5
      vertex -7.44 -28.5458 2.5
      vertex -8.45 -14.9 2.5
    endloop
  endfacet
  facet normal 0 0 1
    outer loop
      vertex -7.44 -28.5458 2.5
      vertex -8.45 -28.55 2.5
      vertex -7.45 -28.55 2.5
    endloop
  endfacet
  facet normal 0.499723 0 0.866186
    outer loop
      vertex -9.69 -14.9 3.21538
      vertex -8.45 -28.55 2.5
      vertex -8.45 -14.9 2.5
    endloop
  endfacet
  facet normal 0.499723 0 0.866186
    outer loop
      vertex -8.45 -28.55 2.5
      vertex -9.69 -14.9 3.21538
      vertex -9.69 -28.55 3.21538
    endloop
  endfacet
  facet normal -1 0 0
    outer loop
      vertex -7.44 -14.9 2.5
      vertex -7.44 -27.5458 9.98
      vertex -7.44 -14.9 9.98
    endloop
  endfacet
  facet normal -1 0 0
    outer loop
      vertex -7.44 -28.5458 2.5
      vertex -7.44 -27.5458 9.98
      vertex -7.44 -14.9 2.5
    endloop
  endfacet
  facet normal -1 0 0
    outer loop
      vertex -7.44 -27.5458 9.98
      vertex -7.44 -28.5458 2.5
      vertex -7.44 -28.5458 8.98
    endloop
  endfacet
endsolid OpenSCAD_Model
